<mxfile host="app.diagrams.net" modified="2022-02-07T10:44:16.891Z" agent="5.0 (Windows NT 10.0; Win64; x64) AppleWebKit/537.36 (KHTML, like Gecko) Chrome/98.0.4758.80 Safari/537.36 Edg/98.0.1108.43" etag="9fz-feSxdTyzuIXUR9Pn" version="16.5.2" type="github" pages="7">
  <diagram id="4FMry-obESv8eRFtackX" name="Demo01">
    <mxGraphModel dx="1490" dy="1097" grid="1" gridSize="10" guides="1" tooltips="1" connect="1" arrows="1" fold="1" page="1" pageScale="1" pageWidth="850" pageHeight="1100" math="0" shadow="0">
      <root>
        <mxCell id="Np9gitekSNoQ5rP9uvyA-0" />
        <mxCell id="Np9gitekSNoQ5rP9uvyA-1" parent="Np9gitekSNoQ5rP9uvyA-0" />
        <mxCell id="e4zc3fK9tu1viOZUfc_1-1" value="" style="points=[[0,0],[0.25,0],[0.5,0],[0.75,0],[1,0],[1,0.25],[1,0.5],[1,0.75],[1,1],[0.75,1],[0.5,1],[0.25,1],[0,1],[0,0.75],[0,0.5],[0,0.25]];outlineConnect=0;gradientColor=none;html=1;whiteSpace=wrap;fontSize=12;fontStyle=0;shape=mxgraph.aws4.group;grIcon=mxgraph.aws4.group_aws_cloud_alt;strokeColor=#232F3E;fillColor=none;verticalAlign=top;align=left;spacingLeft=30;fontColor=#232F3E;dashed=0;" parent="Np9gitekSNoQ5rP9uvyA-1" vertex="1">
          <mxGeometry x="41" y="110" width="1119" height="640" as="geometry" />
        </mxCell>
        <mxCell id="e4zc3fK9tu1viOZUfc_1-0" value="Region" style="points=[[0,0],[0.25,0],[0.5,0],[0.75,0],[1,0],[1,0.25],[1,0.5],[1,0.75],[1,1],[0.75,1],[0.5,1],[0.25,1],[0,1],[0,0.75],[0,0.5],[0,0.25]];outlineConnect=0;gradientColor=none;html=1;whiteSpace=wrap;fontSize=12;fontStyle=0;shape=mxgraph.aws4.group;grIcon=mxgraph.aws4.group_region;strokeColor=#147EBA;fillColor=none;verticalAlign=top;align=left;spacingLeft=30;fontColor=#147EBA;dashed=0;" parent="Np9gitekSNoQ5rP9uvyA-1" vertex="1">
          <mxGeometry x="157" y="150" width="940" height="570" as="geometry" />
        </mxCell>
        <mxCell id="e4zc3fK9tu1viOZUfc_1-2" value="Availability Zone 2" style="fillColor=none;strokeColor=#147EBA;dashed=1;verticalAlign=bottom;fontStyle=0;fontColor=#147EBA;" parent="Np9gitekSNoQ5rP9uvyA-1" vertex="1">
          <mxGeometry x="757" y="230" width="280" height="460" as="geometry" />
        </mxCell>
        <mxCell id="e4zc3fK9tu1viOZUfc_1-3" value="Availability Zone 1" style="fillColor=none;strokeColor=#147EBA;dashed=1;verticalAlign=bottom;fontStyle=0;fontColor=#147EBA;" parent="Np9gitekSNoQ5rP9uvyA-1" vertex="1">
          <mxGeometry x="317" y="230" width="280" height="460" as="geometry" />
        </mxCell>
      </root>
    </mxGraphModel>
  </diagram>
  <diagram id="Kr9lkX9OxO-EOg-F33IA" name="Demo02">
    <mxGraphModel dx="1585" dy="1097" grid="1" gridSize="10" guides="1" tooltips="1" connect="1" arrows="1" fold="1" page="1" pageScale="1" pageWidth="850" pageHeight="1100" math="0" shadow="0">
      <root>
        <mxCell id="tAYcQArS2X2D0KKVIoTN-0" />
        <mxCell id="tAYcQArS2X2D0KKVIoTN-1" parent="tAYcQArS2X2D0KKVIoTN-0" />
        <mxCell id="DtbJVM--xyA7atojJglA-0" value="Region" style="points=[[0,0],[0.25,0],[0.5,0],[0.75,0],[1,0],[1,0.25],[1,0.5],[1,0.75],[1,1],[0.75,1],[0.5,1],[0.25,1],[0,1],[0,0.75],[0,0.5],[0,0.25]];outlineConnect=0;gradientColor=none;html=1;whiteSpace=wrap;fontSize=12;fontStyle=0;shape=mxgraph.aws4.group;grIcon=mxgraph.aws4.group_region;strokeColor=#147EBA;fillColor=none;verticalAlign=top;align=left;spacingLeft=30;fontColor=#147EBA;dashed=0;" parent="tAYcQArS2X2D0KKVIoTN-1" vertex="1">
          <mxGeometry x="157" y="150" width="940" height="570" as="geometry" />
        </mxCell>
        <mxCell id="DtbJVM--xyA7atojJglA-1" value="" style="points=[[0,0],[0.25,0],[0.5,0],[0.75,0],[1,0],[1,0.25],[1,0.5],[1,0.75],[1,1],[0.75,1],[0.5,1],[0.25,1],[0,1],[0,0.75],[0,0.5],[0,0.25]];outlineConnect=0;gradientColor=none;html=1;whiteSpace=wrap;fontSize=12;fontStyle=0;shape=mxgraph.aws4.group;grIcon=mxgraph.aws4.group_aws_cloud_alt;strokeColor=#232F3E;fillColor=none;verticalAlign=top;align=left;spacingLeft=30;fontColor=#232F3E;dashed=0;" parent="tAYcQArS2X2D0KKVIoTN-1" vertex="1">
          <mxGeometry x="41" y="110" width="1119" height="640" as="geometry" />
        </mxCell>
        <mxCell id="DtbJVM--xyA7atojJglA-3" value="Availability Zone 2" style="fillColor=none;strokeColor=#147EBA;dashed=1;verticalAlign=bottom;fontStyle=0;fontColor=#147EBA;" parent="tAYcQArS2X2D0KKVIoTN-1" vertex="1">
          <mxGeometry x="757" y="230" width="280" height="460" as="geometry" />
        </mxCell>
        <mxCell id="DtbJVM--xyA7atojJglA-7" value="Availability Zone 1" style="fillColor=none;strokeColor=#147EBA;dashed=1;verticalAlign=bottom;fontStyle=0;fontColor=#147EBA;" parent="tAYcQArS2X2D0KKVIoTN-1" vertex="1">
          <mxGeometry x="317" y="230" width="280" height="460" as="geometry" />
        </mxCell>
        <mxCell id="DtbJVM--xyA7atojJglA-27" value="" style="group" parent="tAYcQArS2X2D0KKVIoTN-1" vertex="1" connectable="0">
          <mxGeometry x="67" y="337.52000000000004" width="90" height="68.18363636363631" as="geometry" />
        </mxCell>
        <mxCell id="DtbJVM--xyA7atojJglA-28" value="" style="group" parent="DtbJVM--xyA7atojJglA-27" vertex="1" connectable="0">
          <mxGeometry x="-9" y="18.279999999999973" width="90" height="49.90363636363634" as="geometry" />
        </mxCell>
        <mxCell id="DtbJVM--xyA7atojJglA-29" value="" style="outlineConnect=0;fontColor=#232F3E;gradientColor=none;fillColor=#C7131F;strokeColor=none;dashed=0;verticalLabelPosition=bottom;verticalAlign=top;align=center;html=1;fontSize=12;fontStyle=0;aspect=fixed;pointerEvents=1;shape=mxgraph.aws4.role;" parent="DtbJVM--xyA7atojJglA-28" vertex="1">
          <mxGeometry x="15" width="53" height="29.9" as="geometry" />
        </mxCell>
        <mxCell id="DtbJVM--xyA7atojJglA-30" value="web-server-role" style="text;html=1;resizable=0;autosize=1;align=center;verticalAlign=middle;points=[];fillColor=none;strokeColor=none;rounded=0;shadow=0;fontSize=10;" parent="DtbJVM--xyA7atojJglA-28" vertex="1">
          <mxGeometry y="29.903636363636338" width="90" height="20" as="geometry" />
        </mxCell>
        <mxCell id="DtbJVM--xyA7atojJglA-31" value="web-server-policy" style="outlineConnect=0;fontColor=#232F3E;gradientColor=none;fillColor=#FF5252;strokeColor=none;dashed=0;verticalLabelPosition=bottom;verticalAlign=top;align=center;html=1;fontSize=12;fontStyle=0;aspect=fixed;pointerEvents=1;shape=mxgraph.aws4.permissions;" parent="tAYcQArS2X2D0KKVIoTN-1" vertex="1">
          <mxGeometry x="80" y="450" width="39" height="49.07" as="geometry" />
        </mxCell>
      </root>
    </mxGraphModel>
  </diagram>
  <diagram id="jQiM47DiZnckLpTeV2Tb" name="Demo03">
    <mxGraphModel dx="1585" dy="1097" grid="1" gridSize="10" guides="1" tooltips="1" connect="1" arrows="1" fold="1" page="1" pageScale="1" pageWidth="850" pageHeight="1100" math="0" shadow="0">
      <root>
        <mxCell id="hu2u6mBPMJ8tb1TWHvZu-0" />
        <mxCell id="hu2u6mBPMJ8tb1TWHvZu-1" parent="hu2u6mBPMJ8tb1TWHvZu-0" />
        <mxCell id="cUeg4nPMlYv5_Qd5qSKg-0" value="Region" style="points=[[0,0],[0.25,0],[0.5,0],[0.75,0],[1,0],[1,0.25],[1,0.5],[1,0.75],[1,1],[0.75,1],[0.5,1],[0.25,1],[0,1],[0,0.75],[0,0.5],[0,0.25]];outlineConnect=0;gradientColor=none;html=1;whiteSpace=wrap;fontSize=12;fontStyle=0;shape=mxgraph.aws4.group;grIcon=mxgraph.aws4.group_region;strokeColor=#147EBA;fillColor=none;verticalAlign=top;align=left;spacingLeft=30;fontColor=#147EBA;dashed=0;" parent="hu2u6mBPMJ8tb1TWHvZu-1" vertex="1">
          <mxGeometry x="157" y="150" width="940" height="570" as="geometry" />
        </mxCell>
        <mxCell id="cUeg4nPMlYv5_Qd5qSKg-1" value="" style="points=[[0,0],[0.25,0],[0.5,0],[0.75,0],[1,0],[1,0.25],[1,0.5],[1,0.75],[1,1],[0.75,1],[0.5,1],[0.25,1],[0,1],[0,0.75],[0,0.5],[0,0.25]];outlineConnect=0;gradientColor=none;html=1;whiteSpace=wrap;fontSize=12;fontStyle=0;shape=mxgraph.aws4.group;grIcon=mxgraph.aws4.group_aws_cloud_alt;strokeColor=#232F3E;fillColor=none;verticalAlign=top;align=left;spacingLeft=30;fontColor=#232F3E;dashed=0;" parent="hu2u6mBPMJ8tb1TWHvZu-1" vertex="1">
          <mxGeometry x="41" y="110" width="1119" height="640" as="geometry" />
        </mxCell>
        <mxCell id="cUeg4nPMlYv5_Qd5qSKg-2" value="&lt;font color=&quot;#006600&quot;&gt;vpc (10.10.0.0/16)&lt;/font&gt;" style="points=[[0,0],[0.25,0],[0.5,0],[0.75,0],[1,0],[1,0.25],[1,0.5],[1,0.75],[1,1],[0.75,1],[0.5,1],[0.25,1],[0,1],[0,0.75],[0,0.5],[0,0.25]];outlineConnect=0;gradientColor=none;html=1;whiteSpace=wrap;fontSize=12;fontStyle=0;shape=mxgraph.aws4.group;grIcon=mxgraph.aws4.group_vpc;strokeColor=#248814;fillColor=none;verticalAlign=top;align=left;spacingLeft=30;fontColor=#AAB7B8;dashed=0;" parent="hu2u6mBPMJ8tb1TWHvZu-1" vertex="1">
          <mxGeometry x="297" y="196" width="760" height="504" as="geometry" />
        </mxCell>
        <mxCell id="cUeg4nPMlYv5_Qd5qSKg-3" value="Availability Zone 2" style="fillColor=none;strokeColor=#147EBA;dashed=1;verticalAlign=bottom;fontStyle=0;fontColor=#147EBA;" parent="hu2u6mBPMJ8tb1TWHvZu-1" vertex="1">
          <mxGeometry x="757" y="230" width="280" height="460" as="geometry" />
        </mxCell>
        <mxCell id="cUeg4nPMlYv5_Qd5qSKg-4" value="" style="group" parent="hu2u6mBPMJ8tb1TWHvZu-1" vertex="1" connectable="0">
          <mxGeometry x="785" y="430" width="220" height="230" as="geometry" />
        </mxCell>
        <mxCell id="cUeg4nPMlYv5_Qd5qSKg-5" value="private-subnet-2 (10.10.4.0/23)" style="points=[[0,0],[0.25,0],[0.5,0],[0.75,0],[1,0],[1,0.25],[1,0.5],[1,0.75],[1,1],[0.75,1],[0.5,1],[0.25,1],[0,1],[0,0.75],[0,0.5],[0,0.25]];outlineConnect=0;gradientColor=none;html=1;whiteSpace=wrap;fontSize=11;fontStyle=0;shape=mxgraph.aws4.group;grIcon=mxgraph.aws4.group_security_group;grStroke=0;strokeColor=#147EBA;fillColor=#E6F2F8;verticalAlign=top;align=left;spacingLeft=30;fontColor=#147EBA;dashed=0;" parent="cUeg4nPMlYv5_Qd5qSKg-4" vertex="1">
          <mxGeometry width="220" height="230.00000000000003" as="geometry" />
        </mxCell>
        <mxCell id="cUeg4nPMlYv5_Qd5qSKg-6" value="" style="outlineConnect=0;fontColor=#FFFFFF;gradientColor=none;fillColor=#147dba;strokeColor=none;dashed=0;verticalLabelPosition=bottom;verticalAlign=top;align=center;html=1;fontSize=12;fontStyle=0;aspect=fixed;pointerEvents=1;shape=mxgraph.aws4.route_table;shadow=0;" parent="cUeg4nPMlYv5_Qd5qSKg-4" vertex="1">
          <mxGeometry x="192" y="196.77777777777783" width="19.74" height="19.23" as="geometry" />
        </mxCell>
        <mxCell id="cUeg4nPMlYv5_Qd5qSKg-7" value="Availability Zone 1" style="fillColor=none;strokeColor=#147EBA;dashed=1;verticalAlign=bottom;fontStyle=0;fontColor=#147EBA;" parent="hu2u6mBPMJ8tb1TWHvZu-1" vertex="1">
          <mxGeometry x="317" y="230" width="280" height="460" as="geometry" />
        </mxCell>
        <mxCell id="cUeg4nPMlYv5_Qd5qSKg-8" value="" style="group" parent="hu2u6mBPMJ8tb1TWHvZu-1" vertex="1" connectable="0">
          <mxGeometry x="346" y="430" width="220" height="230" as="geometry" />
        </mxCell>
        <mxCell id="cUeg4nPMlYv5_Qd5qSKg-9" value="private-subnet-1 (10.10.2.0/23)" style="points=[[0,0],[0.25,0],[0.5,0],[0.75,0],[1,0],[1,0.25],[1,0.5],[1,0.75],[1,1],[0.75,1],[0.5,1],[0.25,1],[0,1],[0,0.75],[0,0.5],[0,0.25]];outlineConnect=0;gradientColor=none;html=1;whiteSpace=wrap;fontSize=11;fontStyle=0;shape=mxgraph.aws4.group;grIcon=mxgraph.aws4.group_security_group;grStroke=0;strokeColor=#147EBA;fillColor=#E6F2F8;verticalAlign=top;align=left;spacingLeft=30;fontColor=#147EBA;dashed=0;" parent="cUeg4nPMlYv5_Qd5qSKg-8" vertex="1">
          <mxGeometry width="220" height="230" as="geometry" />
        </mxCell>
        <mxCell id="cUeg4nPMlYv5_Qd5qSKg-10" value="" style="outlineConnect=0;fontColor=#FFFFFF;gradientColor=none;fillColor=#147dba;strokeColor=none;dashed=0;verticalLabelPosition=bottom;verticalAlign=top;align=center;html=1;fontSize=12;fontStyle=0;aspect=fixed;pointerEvents=1;shape=mxgraph.aws4.route_table;shadow=0;" parent="cUeg4nPMlYv5_Qd5qSKg-8" vertex="1">
          <mxGeometry x="11.259999999999991" y="195.6716417910448" width="19.74" height="19.23" as="geometry" />
        </mxCell>
        <mxCell id="cUeg4nPMlYv5_Qd5qSKg-11" value="" style="group" parent="hu2u6mBPMJ8tb1TWHvZu-1" vertex="1" connectable="0">
          <mxGeometry x="785" y="239" width="220" height="181" as="geometry" />
        </mxCell>
        <mxCell id="cUeg4nPMlYv5_Qd5qSKg-12" value="public-subnet-2 (10.10.1.0/24)" style="points=[[0,0],[0.25,0],[0.5,0],[0.75,0],[1,0],[1,0.25],[1,0.5],[1,0.75],[1,1],[0.75,1],[0.5,1],[0.25,1],[0,1],[0,0.75],[0,0.5],[0,0.25]];outlineConnect=0;gradientColor=none;html=1;whiteSpace=wrap;fontSize=11;fontStyle=0;shape=mxgraph.aws4.group;grIcon=mxgraph.aws4.group_security_group;grStroke=0;strokeColor=#248814;fillColor=#E9F3E6;verticalAlign=top;align=left;spacingLeft=30;fontColor=#248814;dashed=0;" parent="cUeg4nPMlYv5_Qd5qSKg-11" vertex="1">
          <mxGeometry width="220" height="170" as="geometry" />
        </mxCell>
        <mxCell id="cUeg4nPMlYv5_Qd5qSKg-13" value="" style="outlineConnect=0;fontColor=#FFFFFF;gradientColor=none;fillColor=#006600;strokeColor=none;dashed=0;verticalLabelPosition=bottom;verticalAlign=top;align=center;html=1;fontSize=12;fontStyle=0;aspect=fixed;pointerEvents=1;shape=mxgraph.aws4.route_table;shadow=0;" parent="cUeg4nPMlYv5_Qd5qSKg-11" vertex="1">
          <mxGeometry x="192" y="147.27329192546583" width="19.74" height="19.23" as="geometry" />
        </mxCell>
        <mxCell id="cUeg4nPMlYv5_Qd5qSKg-15" value="" style="group" parent="hu2u6mBPMJ8tb1TWHvZu-1" vertex="1" connectable="0">
          <mxGeometry x="686" y="42.00000000000001" width="60" height="49.53999999999998" as="geometry" />
        </mxCell>
        <mxCell id="cUeg4nPMlYv5_Qd5qSKg-16" value="" style="outlineConnect=0;fontColor=#232F3E;gradientColor=none;fillColor=#232F3E;strokeColor=none;dashed=0;verticalLabelPosition=bottom;verticalAlign=top;align=center;html=1;fontSize=12;fontStyle=0;aspect=fixed;pointerEvents=1;shape=mxgraph.aws4.internet;" parent="cUeg4nPMlYv5_Qd5qSKg-15" vertex="1">
          <mxGeometry x="10" y="19.999999999999986" width="48" height="29.54" as="geometry" />
        </mxCell>
        <mxCell id="cUeg4nPMlYv5_Qd5qSKg-17" value="Internet" style="text;html=1;resizable=0;autosize=1;align=center;verticalAlign=middle;points=[];fillColor=none;strokeColor=none;rounded=0;shadow=0;" parent="cUeg4nPMlYv5_Qd5qSKg-15" vertex="1">
          <mxGeometry width="60" height="20" as="geometry" />
        </mxCell>
        <mxCell id="cUeg4nPMlYv5_Qd5qSKg-18" value="" style="group" parent="hu2u6mBPMJ8tb1TWHvZu-1" vertex="1" connectable="0">
          <mxGeometry x="658" y="168" width="142" height="38" as="geometry" />
        </mxCell>
        <mxCell id="cUeg4nPMlYv5_Qd5qSKg-19" value="" style="outlineConnect=0;fontColor=#232F3E;gradientColor=none;fillColor=#5A30B5;strokeColor=none;dashed=0;verticalLabelPosition=bottom;verticalAlign=top;align=center;html=1;fontSize=12;fontStyle=0;aspect=fixed;pointerEvents=1;shape=mxgraph.aws4.internet_gateway;shadow=0;" parent="cUeg4nPMlYv5_Qd5qSKg-18" vertex="1">
          <mxGeometry width="38" height="38" as="geometry" />
        </mxCell>
        <mxCell id="cUeg4nPMlYv5_Qd5qSKg-20" value="internet-gateway" style="text;html=1;resizable=0;autosize=1;align=center;verticalAlign=middle;points=[];fillColor=none;strokeColor=none;rounded=0;shadow=0;" parent="cUeg4nPMlYv5_Qd5qSKg-18" vertex="1">
          <mxGeometry x="37" y="8" width="100" height="20" as="geometry" />
        </mxCell>
        <mxCell id="cUeg4nPMlYv5_Qd5qSKg-21" style="edgeStyle=orthogonalEdgeStyle;rounded=0;orthogonalLoop=1;jettySize=auto;html=1;" parent="hu2u6mBPMJ8tb1TWHvZu-1" source="cUeg4nPMlYv5_Qd5qSKg-16" target="cUeg4nPMlYv5_Qd5qSKg-19" edge="1">
          <mxGeometry relative="1" as="geometry" />
        </mxCell>
        <mxCell id="cUeg4nPMlYv5_Qd5qSKg-24" value="" style="group" parent="hu2u6mBPMJ8tb1TWHvZu-1" vertex="1" connectable="0">
          <mxGeometry x="346" y="240" width="220" height="170" as="geometry" />
        </mxCell>
        <mxCell id="cUeg4nPMlYv5_Qd5qSKg-25" value="public-subnet-1 (10.10.0.0/24)" style="points=[[0,0],[0.25,0],[0.5,0],[0.75,0],[1,0],[1,0.25],[1,0.5],[1,0.75],[1,1],[0.75,1],[0.5,1],[0.25,1],[0,1],[0,0.75],[0,0.5],[0,0.25]];outlineConnect=0;gradientColor=none;html=1;whiteSpace=wrap;fontSize=11;fontStyle=0;shape=mxgraph.aws4.group;grIcon=mxgraph.aws4.group_security_group;grStroke=0;strokeColor=#248814;fillColor=#E9F3E6;verticalAlign=top;align=left;spacingLeft=30;fontColor=#248814;dashed=0;" parent="cUeg4nPMlYv5_Qd5qSKg-24" vertex="1">
          <mxGeometry width="220" height="170" as="geometry" />
        </mxCell>
        <mxCell id="cUeg4nPMlYv5_Qd5qSKg-26" value="" style="outlineConnect=0;fontColor=#FFFFFF;gradientColor=none;fillColor=#006600;strokeColor=none;dashed=0;verticalLabelPosition=bottom;verticalAlign=top;align=center;html=1;fontSize=12;fontStyle=0;aspect=fixed;pointerEvents=1;shape=mxgraph.aws4.route_table;shadow=0;" parent="cUeg4nPMlYv5_Qd5qSKg-24" vertex="1">
          <mxGeometry x="11.259999999999991" y="138.125" width="18.64333333333333" height="18.161666666666665" as="geometry" />
        </mxCell>
        <mxCell id="cUeg4nPMlYv5_Qd5qSKg-27" value="nat-gateway" style="outlineConnect=0;fontColor=#232F3E;gradientColor=none;fillColor=#A166FF;strokeColor=none;dashed=0;verticalLabelPosition=bottom;verticalAlign=top;align=center;html=1;fontSize=12;fontStyle=0;aspect=fixed;pointerEvents=1;shape=mxgraph.aws4.nat_gateway;" parent="cUeg4nPMlYv5_Qd5qSKg-24" vertex="1">
          <mxGeometry x="91" y="50" width="38" height="38" as="geometry" />
        </mxCell>
        <mxCell id="cUeg4nPMlYv5_Qd5qSKg-29" value="" style="outlineConnect=0;fontColor=#232F3E;gradientColor=none;fillColor=#232F3E;strokeColor=none;dashed=0;verticalLabelPosition=bottom;verticalAlign=top;align=center;html=1;fontSize=12;fontStyle=0;aspect=fixed;pointerEvents=1;shape=mxgraph.aws4.client;" parent="hu2u6mBPMJ8tb1TWHvZu-1" vertex="1">
          <mxGeometry x="1190" y="49.99999999999999" width="57" height="55.54" as="geometry" />
        </mxCell>
        <mxCell id="cUeg4nPMlYv5_Qd5qSKg-30" style="edgeStyle=orthogonalEdgeStyle;rounded=0;orthogonalLoop=1;jettySize=auto;html=1;" parent="hu2u6mBPMJ8tb1TWHvZu-1" source="cUeg4nPMlYv5_Qd5qSKg-29" target="cUeg4nPMlYv5_Qd5qSKg-16" edge="1">
          <mxGeometry relative="1" as="geometry">
            <mxPoint x="1240" y="190" as="targetPoint" />
          </mxGeometry>
        </mxCell>
        <mxCell id="cUeg4nPMlYv5_Qd5qSKg-31" value="" style="group" parent="hu2u6mBPMJ8tb1TWHvZu-1" vertex="1" connectable="0">
          <mxGeometry x="67" y="337.52000000000004" width="90" height="68.18363636363631" as="geometry" />
        </mxCell>
        <mxCell id="cUeg4nPMlYv5_Qd5qSKg-32" value="" style="group" parent="cUeg4nPMlYv5_Qd5qSKg-31" vertex="1" connectable="0">
          <mxGeometry x="-9" y="18.279999999999973" width="90" height="49.90363636363634" as="geometry" />
        </mxCell>
        <mxCell id="cUeg4nPMlYv5_Qd5qSKg-33" value="" style="outlineConnect=0;fontColor=#232F3E;gradientColor=none;fillColor=#C7131F;strokeColor=none;dashed=0;verticalLabelPosition=bottom;verticalAlign=top;align=center;html=1;fontSize=12;fontStyle=0;aspect=fixed;pointerEvents=1;shape=mxgraph.aws4.role;" parent="cUeg4nPMlYv5_Qd5qSKg-32" vertex="1">
          <mxGeometry x="15" width="53" height="29.9" as="geometry" />
        </mxCell>
        <mxCell id="cUeg4nPMlYv5_Qd5qSKg-34" value="web-server-role" style="text;html=1;resizable=0;autosize=1;align=center;verticalAlign=middle;points=[];fillColor=none;strokeColor=none;rounded=0;shadow=0;fontSize=10;" parent="cUeg4nPMlYv5_Qd5qSKg-32" vertex="1">
          <mxGeometry y="29.903636363636338" width="90" height="20" as="geometry" />
        </mxCell>
        <mxCell id="cUeg4nPMlYv5_Qd5qSKg-36" value="web-server-policy" style="outlineConnect=0;fontColor=#232F3E;gradientColor=none;fillColor=#FF5252;strokeColor=none;dashed=0;verticalLabelPosition=bottom;verticalAlign=top;align=center;html=1;fontSize=12;fontStyle=0;aspect=fixed;pointerEvents=1;shape=mxgraph.aws4.permissions;" parent="hu2u6mBPMJ8tb1TWHvZu-1" vertex="1">
          <mxGeometry x="80" y="450" width="39" height="49.07" as="geometry" />
        </mxCell>
      </root>
    </mxGraphModel>
  </diagram>
  <diagram id="cAl3Pl8hsXVjyC5o24ot" name="Demo04">
    <mxGraphModel dx="1585" dy="1097" grid="1" gridSize="10" guides="1" tooltips="1" connect="1" arrows="1" fold="1" page="1" pageScale="1" pageWidth="850" pageHeight="1100" math="0" shadow="0">
      <root>
        <mxCell id="CZvKBCZES8ERf8eeZnAv-0" />
        <mxCell id="CZvKBCZES8ERf8eeZnAv-1" parent="CZvKBCZES8ERf8eeZnAv-0" />
        <mxCell id="yAr_p4S9T410j-U0vEyX-0" value="Region" style="points=[[0,0],[0.25,0],[0.5,0],[0.75,0],[1,0],[1,0.25],[1,0.5],[1,0.75],[1,1],[0.75,1],[0.5,1],[0.25,1],[0,1],[0,0.75],[0,0.5],[0,0.25]];outlineConnect=0;gradientColor=none;html=1;whiteSpace=wrap;fontSize=12;fontStyle=0;shape=mxgraph.aws4.group;grIcon=mxgraph.aws4.group_region;strokeColor=#147EBA;fillColor=none;verticalAlign=top;align=left;spacingLeft=30;fontColor=#147EBA;dashed=0;" parent="CZvKBCZES8ERf8eeZnAv-1" vertex="1">
          <mxGeometry x="157" y="150" width="940" height="570" as="geometry" />
        </mxCell>
        <mxCell id="yAr_p4S9T410j-U0vEyX-1" value="" style="points=[[0,0],[0.25,0],[0.5,0],[0.75,0],[1,0],[1,0.25],[1,0.5],[1,0.75],[1,1],[0.75,1],[0.5,1],[0.25,1],[0,1],[0,0.75],[0,0.5],[0,0.25]];outlineConnect=0;gradientColor=none;html=1;whiteSpace=wrap;fontSize=12;fontStyle=0;shape=mxgraph.aws4.group;grIcon=mxgraph.aws4.group_aws_cloud_alt;strokeColor=#232F3E;fillColor=none;verticalAlign=top;align=left;spacingLeft=30;fontColor=#232F3E;dashed=0;" parent="CZvKBCZES8ERf8eeZnAv-1" vertex="1">
          <mxGeometry x="41" y="110" width="1119" height="640" as="geometry" />
        </mxCell>
        <mxCell id="yAr_p4S9T410j-U0vEyX-2" value="&lt;font color=&quot;#006600&quot;&gt;vpc (10.10.0.0/16)&lt;/font&gt;" style="points=[[0,0],[0.25,0],[0.5,0],[0.75,0],[1,0],[1,0.25],[1,0.5],[1,0.75],[1,1],[0.75,1],[0.5,1],[0.25,1],[0,1],[0,0.75],[0,0.5],[0,0.25]];outlineConnect=0;gradientColor=none;html=1;whiteSpace=wrap;fontSize=12;fontStyle=0;shape=mxgraph.aws4.group;grIcon=mxgraph.aws4.group_vpc;strokeColor=#248814;fillColor=none;verticalAlign=top;align=left;spacingLeft=30;fontColor=#AAB7B8;dashed=0;" parent="CZvKBCZES8ERf8eeZnAv-1" vertex="1">
          <mxGeometry x="297" y="196" width="760" height="504" as="geometry" />
        </mxCell>
        <mxCell id="yAr_p4S9T410j-U0vEyX-3" value="Availability Zone 2" style="fillColor=none;strokeColor=#147EBA;dashed=1;verticalAlign=bottom;fontStyle=0;fontColor=#147EBA;" parent="CZvKBCZES8ERf8eeZnAv-1" vertex="1">
          <mxGeometry x="757" y="230" width="280" height="460" as="geometry" />
        </mxCell>
        <mxCell id="yAr_p4S9T410j-U0vEyX-4" value="" style="group" parent="CZvKBCZES8ERf8eeZnAv-1" vertex="1" connectable="0">
          <mxGeometry x="785" y="430" width="220" height="230" as="geometry" />
        </mxCell>
        <mxCell id="yAr_p4S9T410j-U0vEyX-5" value="private-subnet-2 (10.10.4.0/23)" style="points=[[0,0],[0.25,0],[0.5,0],[0.75,0],[1,0],[1,0.25],[1,0.5],[1,0.75],[1,1],[0.75,1],[0.5,1],[0.25,1],[0,1],[0,0.75],[0,0.5],[0,0.25]];outlineConnect=0;gradientColor=none;html=1;whiteSpace=wrap;fontSize=11;fontStyle=0;shape=mxgraph.aws4.group;grIcon=mxgraph.aws4.group_security_group;grStroke=0;strokeColor=#147EBA;fillColor=#E6F2F8;verticalAlign=top;align=left;spacingLeft=30;fontColor=#147EBA;dashed=0;" parent="yAr_p4S9T410j-U0vEyX-4" vertex="1">
          <mxGeometry width="220" height="230.00000000000003" as="geometry" />
        </mxCell>
        <mxCell id="yAr_p4S9T410j-U0vEyX-6" value="" style="outlineConnect=0;fontColor=#FFFFFF;gradientColor=none;fillColor=#147dba;strokeColor=none;dashed=0;verticalLabelPosition=bottom;verticalAlign=top;align=center;html=1;fontSize=12;fontStyle=0;aspect=fixed;pointerEvents=1;shape=mxgraph.aws4.route_table;shadow=0;" parent="yAr_p4S9T410j-U0vEyX-4" vertex="1">
          <mxGeometry x="192" y="196.77777777777783" width="19.74" height="19.23" as="geometry" />
        </mxCell>
        <mxCell id="yAr_p4S9T410j-U0vEyX-7" value="Availability Zone 1" style="fillColor=none;strokeColor=#147EBA;dashed=1;verticalAlign=bottom;fontStyle=0;fontColor=#147EBA;" parent="CZvKBCZES8ERf8eeZnAv-1" vertex="1">
          <mxGeometry x="317" y="230" width="280" height="460" as="geometry" />
        </mxCell>
        <mxCell id="yAr_p4S9T410j-U0vEyX-8" value="" style="group" parent="CZvKBCZES8ERf8eeZnAv-1" vertex="1" connectable="0">
          <mxGeometry x="346" y="430" width="220" height="230" as="geometry" />
        </mxCell>
        <mxCell id="yAr_p4S9T410j-U0vEyX-9" value="private-subnet-1 (10.10.2.0/23)" style="points=[[0,0],[0.25,0],[0.5,0],[0.75,0],[1,0],[1,0.25],[1,0.5],[1,0.75],[1,1],[0.75,1],[0.5,1],[0.25,1],[0,1],[0,0.75],[0,0.5],[0,0.25]];outlineConnect=0;gradientColor=none;html=1;whiteSpace=wrap;fontSize=11;fontStyle=0;shape=mxgraph.aws4.group;grIcon=mxgraph.aws4.group_security_group;grStroke=0;strokeColor=#147EBA;fillColor=#E6F2F8;verticalAlign=top;align=left;spacingLeft=30;fontColor=#147EBA;dashed=0;" parent="yAr_p4S9T410j-U0vEyX-8" vertex="1">
          <mxGeometry width="220" height="230" as="geometry" />
        </mxCell>
        <mxCell id="yAr_p4S9T410j-U0vEyX-10" value="" style="outlineConnect=0;fontColor=#FFFFFF;gradientColor=none;fillColor=#147dba;strokeColor=none;dashed=0;verticalLabelPosition=bottom;verticalAlign=top;align=center;html=1;fontSize=12;fontStyle=0;aspect=fixed;pointerEvents=1;shape=mxgraph.aws4.route_table;shadow=0;" parent="yAr_p4S9T410j-U0vEyX-8" vertex="1">
          <mxGeometry x="11.259999999999991" y="195.6716417910448" width="19.74" height="19.23" as="geometry" />
        </mxCell>
        <mxCell id="yAr_p4S9T410j-U0vEyX-11" value="" style="group" parent="CZvKBCZES8ERf8eeZnAv-1" vertex="1" connectable="0">
          <mxGeometry x="785" y="239" width="220" height="181" as="geometry" />
        </mxCell>
        <mxCell id="yAr_p4S9T410j-U0vEyX-12" value="public-subnet-2 (10.10.1.0/24)" style="points=[[0,0],[0.25,0],[0.5,0],[0.75,0],[1,0],[1,0.25],[1,0.5],[1,0.75],[1,1],[0.75,1],[0.5,1],[0.25,1],[0,1],[0,0.75],[0,0.5],[0,0.25]];outlineConnect=0;gradientColor=none;html=1;whiteSpace=wrap;fontSize=11;fontStyle=0;shape=mxgraph.aws4.group;grIcon=mxgraph.aws4.group_security_group;grStroke=0;strokeColor=#248814;fillColor=#E9F3E6;verticalAlign=top;align=left;spacingLeft=30;fontColor=#248814;dashed=0;" parent="yAr_p4S9T410j-U0vEyX-11" vertex="1">
          <mxGeometry width="220" height="170" as="geometry" />
        </mxCell>
        <mxCell id="yAr_p4S9T410j-U0vEyX-13" value="" style="outlineConnect=0;fontColor=#FFFFFF;gradientColor=none;fillColor=#006600;strokeColor=none;dashed=0;verticalLabelPosition=bottom;verticalAlign=top;align=center;html=1;fontSize=12;fontStyle=0;aspect=fixed;pointerEvents=1;shape=mxgraph.aws4.route_table;shadow=0;" parent="yAr_p4S9T410j-U0vEyX-11" vertex="1">
          <mxGeometry x="192" y="147.27329192546583" width="19.74" height="19.23" as="geometry" />
        </mxCell>
        <mxCell id="yAr_p4S9T410j-U0vEyX-14" value="web-server-security-group" style="fillColor=none;strokeColor=#DD3522;verticalAlign=bottom;fontStyle=0;fontColor=#DD3522;fontSize=10;" parent="CZvKBCZES8ERf8eeZnAv-1" vertex="1">
          <mxGeometry x="817" y="272.08" width="130" height="127.92" as="geometry" />
        </mxCell>
        <mxCell id="yAr_p4S9T410j-U0vEyX-16" value="" style="group" parent="CZvKBCZES8ERf8eeZnAv-1" vertex="1" connectable="0">
          <mxGeometry x="686" y="42.00000000000001" width="60" height="49.53999999999998" as="geometry" />
        </mxCell>
        <mxCell id="yAr_p4S9T410j-U0vEyX-17" value="" style="outlineConnect=0;fontColor=#232F3E;gradientColor=none;fillColor=#232F3E;strokeColor=none;dashed=0;verticalLabelPosition=bottom;verticalAlign=top;align=center;html=1;fontSize=12;fontStyle=0;aspect=fixed;pointerEvents=1;shape=mxgraph.aws4.internet;" parent="yAr_p4S9T410j-U0vEyX-16" vertex="1">
          <mxGeometry x="10" y="19.999999999999986" width="48" height="29.54" as="geometry" />
        </mxCell>
        <mxCell id="yAr_p4S9T410j-U0vEyX-18" value="Internet" style="text;html=1;resizable=0;autosize=1;align=center;verticalAlign=middle;points=[];fillColor=none;strokeColor=none;rounded=0;shadow=0;" parent="yAr_p4S9T410j-U0vEyX-16" vertex="1">
          <mxGeometry width="60" height="20" as="geometry" />
        </mxCell>
        <mxCell id="yAr_p4S9T410j-U0vEyX-19" value="" style="group" parent="CZvKBCZES8ERf8eeZnAv-1" vertex="1" connectable="0">
          <mxGeometry x="658" y="168" width="142" height="38" as="geometry" />
        </mxCell>
        <mxCell id="yAr_p4S9T410j-U0vEyX-20" value="" style="outlineConnect=0;fontColor=#232F3E;gradientColor=none;fillColor=#5A30B5;strokeColor=none;dashed=0;verticalLabelPosition=bottom;verticalAlign=top;align=center;html=1;fontSize=12;fontStyle=0;aspect=fixed;pointerEvents=1;shape=mxgraph.aws4.internet_gateway;shadow=0;" parent="yAr_p4S9T410j-U0vEyX-19" vertex="1">
          <mxGeometry width="38" height="38" as="geometry" />
        </mxCell>
        <mxCell id="yAr_p4S9T410j-U0vEyX-21" value="internet-gateway" style="text;html=1;resizable=0;autosize=1;align=center;verticalAlign=middle;points=[];fillColor=none;strokeColor=none;rounded=0;shadow=0;" parent="yAr_p4S9T410j-U0vEyX-19" vertex="1">
          <mxGeometry x="37" y="8" width="100" height="20" as="geometry" />
        </mxCell>
        <mxCell id="yAr_p4S9T410j-U0vEyX-22" style="edgeStyle=orthogonalEdgeStyle;rounded=0;orthogonalLoop=1;jettySize=auto;html=1;" parent="CZvKBCZES8ERf8eeZnAv-1" source="yAr_p4S9T410j-U0vEyX-17" target="yAr_p4S9T410j-U0vEyX-20" edge="1">
          <mxGeometry relative="1" as="geometry" />
        </mxCell>
        <mxCell id="yAr_p4S9T410j-U0vEyX-23" value="" style="outlineConnect=0;fontColor=#232F3E;gradientColor=none;fillColor=#D86613;strokeColor=none;dashed=0;verticalLabelPosition=bottom;verticalAlign=top;align=center;html=1;fontSize=12;fontStyle=0;aspect=fixed;pointerEvents=1;shape=mxgraph.aws4.instance2;" parent="CZvKBCZES8ERf8eeZnAv-1" vertex="1">
          <mxGeometry x="834" y="276" width="92" height="92" as="geometry" />
        </mxCell>
        <mxCell id="yAr_p4S9T410j-U0vEyX-24" value="web-server" style="text;html=1;resizable=0;autosize=1;align=center;verticalAlign=middle;points=[];fillColor=none;strokeColor=none;rounded=0;shadow=0;fontSize=10;" parent="CZvKBCZES8ERf8eeZnAv-1" vertex="1">
          <mxGeometry x="845" y="337.52363636363634" width="70" height="20" as="geometry" />
        </mxCell>
        <mxCell id="yAr_p4S9T410j-U0vEyX-25" value="" style="group" parent="CZvKBCZES8ERf8eeZnAv-1" vertex="1" connectable="0">
          <mxGeometry x="346" y="240" width="220" height="170" as="geometry" />
        </mxCell>
        <mxCell id="yAr_p4S9T410j-U0vEyX-26" value="public-subnet-1 (10.10.0.0/24)" style="points=[[0,0],[0.25,0],[0.5,0],[0.75,0],[1,0],[1,0.25],[1,0.5],[1,0.75],[1,1],[0.75,1],[0.5,1],[0.25,1],[0,1],[0,0.75],[0,0.5],[0,0.25]];outlineConnect=0;gradientColor=none;html=1;whiteSpace=wrap;fontSize=11;fontStyle=0;shape=mxgraph.aws4.group;grIcon=mxgraph.aws4.group_security_group;grStroke=0;strokeColor=#248814;fillColor=#E9F3E6;verticalAlign=top;align=left;spacingLeft=30;fontColor=#248814;dashed=0;" parent="yAr_p4S9T410j-U0vEyX-25" vertex="1">
          <mxGeometry width="220" height="170" as="geometry" />
        </mxCell>
        <mxCell id="yAr_p4S9T410j-U0vEyX-27" value="" style="outlineConnect=0;fontColor=#FFFFFF;gradientColor=none;fillColor=#006600;strokeColor=none;dashed=0;verticalLabelPosition=bottom;verticalAlign=top;align=center;html=1;fontSize=12;fontStyle=0;aspect=fixed;pointerEvents=1;shape=mxgraph.aws4.route_table;shadow=0;" parent="yAr_p4S9T410j-U0vEyX-25" vertex="1">
          <mxGeometry x="11.259999999999991" y="138.125" width="18.64333333333333" height="18.161666666666665" as="geometry" />
        </mxCell>
        <mxCell id="yAr_p4S9T410j-U0vEyX-28" value="nat-gateway" style="outlineConnect=0;fontColor=#232F3E;gradientColor=none;fillColor=#A166FF;strokeColor=none;dashed=0;verticalLabelPosition=bottom;verticalAlign=top;align=center;html=1;fontSize=12;fontStyle=0;aspect=fixed;pointerEvents=1;shape=mxgraph.aws4.nat_gateway;" parent="yAr_p4S9T410j-U0vEyX-25" vertex="1">
          <mxGeometry x="91" y="50" width="38" height="38" as="geometry" />
        </mxCell>
        <mxCell id="yAr_p4S9T410j-U0vEyX-29" value="" style="outlineConnect=0;fontColor=#232F3E;gradientColor=none;fillColor=#277116;strokeColor=none;dashed=0;verticalLabelPosition=bottom;verticalAlign=top;align=center;html=1;fontSize=12;fontStyle=0;aspect=fixed;pointerEvents=1;shape=mxgraph.aws4.volume;" parent="CZvKBCZES8ERf8eeZnAv-1" vertex="1">
          <mxGeometry x="884" y="310.78" width="22" height="27.68" as="geometry" />
        </mxCell>
        <mxCell id="yAr_p4S9T410j-U0vEyX-36" value="" style="outlineConnect=0;fontColor=#232F3E;gradientColor=none;fillColor=#232F3E;strokeColor=none;dashed=0;verticalLabelPosition=bottom;verticalAlign=top;align=center;html=1;fontSize=12;fontStyle=0;aspect=fixed;pointerEvents=1;shape=mxgraph.aws4.client;" parent="CZvKBCZES8ERf8eeZnAv-1" vertex="1">
          <mxGeometry x="1190" y="49.99999999999999" width="57" height="55.54" as="geometry" />
        </mxCell>
        <mxCell id="yAr_p4S9T410j-U0vEyX-37" style="edgeStyle=orthogonalEdgeStyle;rounded=0;orthogonalLoop=1;jettySize=auto;html=1;" parent="CZvKBCZES8ERf8eeZnAv-1" source="yAr_p4S9T410j-U0vEyX-36" target="yAr_p4S9T410j-U0vEyX-17" edge="1">
          <mxGeometry relative="1" as="geometry">
            <mxPoint x="1260" y="210" as="sourcePoint" />
          </mxGeometry>
        </mxCell>
        <mxCell id="yAr_p4S9T410j-U0vEyX-38" value="" style="group" parent="CZvKBCZES8ERf8eeZnAv-1" vertex="1" connectable="0">
          <mxGeometry x="67" y="337.52000000000004" width="90" height="68.18363636363631" as="geometry" />
        </mxCell>
        <mxCell id="yAr_p4S9T410j-U0vEyX-39" value="" style="group" parent="yAr_p4S9T410j-U0vEyX-38" vertex="1" connectable="0">
          <mxGeometry x="-9" y="18.279999999999973" width="90" height="49.90363636363634" as="geometry" />
        </mxCell>
        <mxCell id="yAr_p4S9T410j-U0vEyX-40" value="" style="outlineConnect=0;fontColor=#232F3E;gradientColor=none;fillColor=#C7131F;strokeColor=none;dashed=0;verticalLabelPosition=bottom;verticalAlign=top;align=center;html=1;fontSize=12;fontStyle=0;aspect=fixed;pointerEvents=1;shape=mxgraph.aws4.role;" parent="yAr_p4S9T410j-U0vEyX-39" vertex="1">
          <mxGeometry x="15" width="53" height="29.9" as="geometry" />
        </mxCell>
        <mxCell id="yAr_p4S9T410j-U0vEyX-41" value="web-server-role" style="text;html=1;resizable=0;autosize=1;align=center;verticalAlign=middle;points=[];fillColor=none;strokeColor=none;rounded=0;shadow=0;fontSize=10;" parent="yAr_p4S9T410j-U0vEyX-39" vertex="1">
          <mxGeometry y="29.903636363636338" width="90" height="20" as="geometry" />
        </mxCell>
        <mxCell id="yAr_p4S9T410j-U0vEyX-42" value="" style="outlineConnect=0;fontColor=#232F3E;gradientColor=none;fillColor=#C7131F;strokeColor=none;dashed=0;verticalLabelPosition=bottom;verticalAlign=top;align=center;html=1;fontSize=12;fontStyle=0;aspect=fixed;pointerEvents=1;shape=mxgraph.aws4.role;" parent="CZvKBCZES8ERf8eeZnAv-1" vertex="1">
          <mxGeometry x="849" y="316.72" width="28" height="15.8" as="geometry" />
        </mxCell>
        <mxCell id="yAr_p4S9T410j-U0vEyX-43" value="web-server-policy" style="outlineConnect=0;fontColor=#232F3E;gradientColor=none;fillColor=#FF5252;strokeColor=none;dashed=0;verticalLabelPosition=bottom;verticalAlign=top;align=center;html=1;fontSize=12;fontStyle=0;aspect=fixed;pointerEvents=1;shape=mxgraph.aws4.permissions;" parent="CZvKBCZES8ERf8eeZnAv-1" vertex="1">
          <mxGeometry x="80" y="450" width="39" height="49.07" as="geometry" />
        </mxCell>
        <mxCell id="fw_QXXDUZBG5RFFmdjRL-0" style="edgeStyle=orthogonalEdgeStyle;rounded=0;orthogonalLoop=1;jettySize=auto;html=1;" parent="CZvKBCZES8ERf8eeZnAv-1" source="yAr_p4S9T410j-U0vEyX-20" target="yAr_p4S9T410j-U0vEyX-23" edge="1">
          <mxGeometry relative="1" as="geometry">
            <mxPoint x="707.1813166298207" y="86.71428571428578" as="sourcePoint" />
            <mxPoint x="687" y="178.00043270325682" as="targetPoint" />
            <Array as="points">
              <mxPoint x="677" y="322" />
            </Array>
          </mxGeometry>
        </mxCell>
      </root>
    </mxGraphModel>
  </diagram>
  <diagram id="UwiOwjZ7lkEOCqJfU6MS" name="Demo05">
    <mxGraphModel dx="1585" dy="1097" grid="1" gridSize="10" guides="1" tooltips="1" connect="1" arrows="1" fold="1" page="1" pageScale="1" pageWidth="850" pageHeight="1100" math="0" shadow="0">
      <root>
        <mxCell id="bKZRrwMjLIxIwUCSkcXs-0" />
        <mxCell id="bKZRrwMjLIxIwUCSkcXs-1" parent="bKZRrwMjLIxIwUCSkcXs-0" />
        <mxCell id="N3rQtNJv3S-D7zblpcgc-0" value="Region" style="points=[[0,0],[0.25,0],[0.5,0],[0.75,0],[1,0],[1,0.25],[1,0.5],[1,0.75],[1,1],[0.75,1],[0.5,1],[0.25,1],[0,1],[0,0.75],[0,0.5],[0,0.25]];outlineConnect=0;gradientColor=none;html=1;whiteSpace=wrap;fontSize=12;fontStyle=0;shape=mxgraph.aws4.group;grIcon=mxgraph.aws4.group_region;strokeColor=#147EBA;fillColor=none;verticalAlign=top;align=left;spacingLeft=30;fontColor=#147EBA;dashed=0;" parent="bKZRrwMjLIxIwUCSkcXs-1" vertex="1">
          <mxGeometry x="157" y="150" width="940" height="570" as="geometry" />
        </mxCell>
        <mxCell id="N3rQtNJv3S-D7zblpcgc-1" value="" style="points=[[0,0],[0.25,0],[0.5,0],[0.75,0],[1,0],[1,0.25],[1,0.5],[1,0.75],[1,1],[0.75,1],[0.5,1],[0.25,1],[0,1],[0,0.75],[0,0.5],[0,0.25]];outlineConnect=0;gradientColor=none;html=1;whiteSpace=wrap;fontSize=12;fontStyle=0;shape=mxgraph.aws4.group;grIcon=mxgraph.aws4.group_aws_cloud_alt;strokeColor=#232F3E;fillColor=none;verticalAlign=top;align=left;spacingLeft=30;fontColor=#232F3E;dashed=0;" parent="bKZRrwMjLIxIwUCSkcXs-1" vertex="1">
          <mxGeometry x="41" y="110" width="1119" height="640" as="geometry" />
        </mxCell>
        <mxCell id="N3rQtNJv3S-D7zblpcgc-2" value="&lt;font color=&quot;#006600&quot;&gt;vpc (10.10.0.0/16)&lt;/font&gt;" style="points=[[0,0],[0.25,0],[0.5,0],[0.75,0],[1,0],[1,0.25],[1,0.5],[1,0.75],[1,1],[0.75,1],[0.5,1],[0.25,1],[0,1],[0,0.75],[0,0.5],[0,0.25]];outlineConnect=0;gradientColor=none;html=1;whiteSpace=wrap;fontSize=12;fontStyle=0;shape=mxgraph.aws4.group;grIcon=mxgraph.aws4.group_vpc;strokeColor=#248814;fillColor=none;verticalAlign=top;align=left;spacingLeft=30;fontColor=#AAB7B8;dashed=0;" parent="bKZRrwMjLIxIwUCSkcXs-1" vertex="1">
          <mxGeometry x="297" y="196" width="760" height="504" as="geometry" />
        </mxCell>
        <mxCell id="N3rQtNJv3S-D7zblpcgc-3" value="Availability Zone 2" style="fillColor=none;strokeColor=#147EBA;dashed=1;verticalAlign=bottom;fontStyle=0;fontColor=#147EBA;" parent="bKZRrwMjLIxIwUCSkcXs-1" vertex="1">
          <mxGeometry x="757" y="230" width="280" height="460" as="geometry" />
        </mxCell>
        <mxCell id="N3rQtNJv3S-D7zblpcgc-4" value="" style="group" parent="bKZRrwMjLIxIwUCSkcXs-1" vertex="1" connectable="0">
          <mxGeometry x="785" y="430" width="220" height="230" as="geometry" />
        </mxCell>
        <mxCell id="N3rQtNJv3S-D7zblpcgc-5" value="private-subnet-2 (10.10.4.0/23)" style="points=[[0,0],[0.25,0],[0.5,0],[0.75,0],[1,0],[1,0.25],[1,0.5],[1,0.75],[1,1],[0.75,1],[0.5,1],[0.25,1],[0,1],[0,0.75],[0,0.5],[0,0.25]];outlineConnect=0;gradientColor=none;html=1;whiteSpace=wrap;fontSize=11;fontStyle=0;shape=mxgraph.aws4.group;grIcon=mxgraph.aws4.group_security_group;grStroke=0;strokeColor=#147EBA;fillColor=#E6F2F8;verticalAlign=top;align=left;spacingLeft=30;fontColor=#147EBA;dashed=0;" parent="N3rQtNJv3S-D7zblpcgc-4" vertex="1">
          <mxGeometry width="220" height="230.00000000000003" as="geometry" />
        </mxCell>
        <mxCell id="N3rQtNJv3S-D7zblpcgc-6" value="" style="outlineConnect=0;fontColor=#FFFFFF;gradientColor=none;fillColor=#147dba;strokeColor=none;dashed=0;verticalLabelPosition=bottom;verticalAlign=top;align=center;html=1;fontSize=12;fontStyle=0;aspect=fixed;pointerEvents=1;shape=mxgraph.aws4.route_table;shadow=0;" parent="N3rQtNJv3S-D7zblpcgc-4" vertex="1">
          <mxGeometry x="192" y="196.77777777777783" width="19.74" height="19.23" as="geometry" />
        </mxCell>
        <mxCell id="N3rQtNJv3S-D7zblpcgc-7" value="Availability Zone 1" style="fillColor=none;strokeColor=#147EBA;dashed=1;verticalAlign=bottom;fontStyle=0;fontColor=#147EBA;" parent="bKZRrwMjLIxIwUCSkcXs-1" vertex="1">
          <mxGeometry x="317" y="230" width="280" height="460" as="geometry" />
        </mxCell>
        <mxCell id="N3rQtNJv3S-D7zblpcgc-8" value="" style="group" parent="bKZRrwMjLIxIwUCSkcXs-1" vertex="1" connectable="0">
          <mxGeometry x="346" y="430" width="220" height="230" as="geometry" />
        </mxCell>
        <mxCell id="N3rQtNJv3S-D7zblpcgc-9" value="private-subnet-1 (10.10.2.0/23)" style="points=[[0,0],[0.25,0],[0.5,0],[0.75,0],[1,0],[1,0.25],[1,0.5],[1,0.75],[1,1],[0.75,1],[0.5,1],[0.25,1],[0,1],[0,0.75],[0,0.5],[0,0.25]];outlineConnect=0;gradientColor=none;html=1;whiteSpace=wrap;fontSize=11;fontStyle=0;shape=mxgraph.aws4.group;grIcon=mxgraph.aws4.group_security_group;grStroke=0;strokeColor=#147EBA;fillColor=#E6F2F8;verticalAlign=top;align=left;spacingLeft=30;fontColor=#147EBA;dashed=0;" parent="N3rQtNJv3S-D7zblpcgc-8" vertex="1">
          <mxGeometry width="220" height="230" as="geometry" />
        </mxCell>
        <mxCell id="N3rQtNJv3S-D7zblpcgc-10" value="" style="outlineConnect=0;fontColor=#FFFFFF;gradientColor=none;fillColor=#147dba;strokeColor=none;dashed=0;verticalLabelPosition=bottom;verticalAlign=top;align=center;html=1;fontSize=12;fontStyle=0;aspect=fixed;pointerEvents=1;shape=mxgraph.aws4.route_table;shadow=0;" parent="N3rQtNJv3S-D7zblpcgc-8" vertex="1">
          <mxGeometry x="11.259999999999991" y="195.6716417910448" width="19.74" height="19.23" as="geometry" />
        </mxCell>
        <mxCell id="N3rQtNJv3S-D7zblpcgc-11" value="" style="group" parent="bKZRrwMjLIxIwUCSkcXs-1" vertex="1" connectable="0">
          <mxGeometry x="785" y="239" width="220" height="181" as="geometry" />
        </mxCell>
        <mxCell id="N3rQtNJv3S-D7zblpcgc-12" value="public-subnet-2 (10.10.1.0/24)" style="points=[[0,0],[0.25,0],[0.5,0],[0.75,0],[1,0],[1,0.25],[1,0.5],[1,0.75],[1,1],[0.75,1],[0.5,1],[0.25,1],[0,1],[0,0.75],[0,0.5],[0,0.25]];outlineConnect=0;gradientColor=none;html=1;whiteSpace=wrap;fontSize=11;fontStyle=0;shape=mxgraph.aws4.group;grIcon=mxgraph.aws4.group_security_group;grStroke=0;strokeColor=#248814;fillColor=#E9F3E6;verticalAlign=top;align=left;spacingLeft=30;fontColor=#248814;dashed=0;" parent="N3rQtNJv3S-D7zblpcgc-11" vertex="1">
          <mxGeometry width="220" height="170" as="geometry" />
        </mxCell>
        <mxCell id="N3rQtNJv3S-D7zblpcgc-13" value="" style="outlineConnect=0;fontColor=#FFFFFF;gradientColor=none;fillColor=#006600;strokeColor=none;dashed=0;verticalLabelPosition=bottom;verticalAlign=top;align=center;html=1;fontSize=12;fontStyle=0;aspect=fixed;pointerEvents=1;shape=mxgraph.aws4.route_table;shadow=0;" parent="N3rQtNJv3S-D7zblpcgc-11" vertex="1">
          <mxGeometry x="192" y="147.27329192546583" width="19.74" height="19.23" as="geometry" />
        </mxCell>
        <mxCell id="N3rQtNJv3S-D7zblpcgc-14" value="web-server-security-group" style="fillColor=none;strokeColor=#DD3522;verticalAlign=bottom;fontStyle=0;fontColor=#DD3522;fontSize=10;" parent="bKZRrwMjLIxIwUCSkcXs-1" vertex="1">
          <mxGeometry x="817" y="272.08" width="130" height="127.92" as="geometry" />
        </mxCell>
        <mxCell id="N3rQtNJv3S-D7zblpcgc-16" value="" style="group" parent="bKZRrwMjLIxIwUCSkcXs-1" vertex="1" connectable="0">
          <mxGeometry x="686" y="42.00000000000001" width="60" height="49.53999999999998" as="geometry" />
        </mxCell>
        <mxCell id="N3rQtNJv3S-D7zblpcgc-17" value="" style="outlineConnect=0;fontColor=#232F3E;gradientColor=none;fillColor=#232F3E;strokeColor=none;dashed=0;verticalLabelPosition=bottom;verticalAlign=top;align=center;html=1;fontSize=12;fontStyle=0;aspect=fixed;pointerEvents=1;shape=mxgraph.aws4.internet;" parent="N3rQtNJv3S-D7zblpcgc-16" vertex="1">
          <mxGeometry x="10" y="19.999999999999986" width="48" height="29.54" as="geometry" />
        </mxCell>
        <mxCell id="N3rQtNJv3S-D7zblpcgc-18" value="Internet" style="text;html=1;resizable=0;autosize=1;align=center;verticalAlign=middle;points=[];fillColor=none;strokeColor=none;rounded=0;shadow=0;" parent="N3rQtNJv3S-D7zblpcgc-16" vertex="1">
          <mxGeometry width="60" height="20" as="geometry" />
        </mxCell>
        <mxCell id="N3rQtNJv3S-D7zblpcgc-19" value="" style="group" parent="bKZRrwMjLIxIwUCSkcXs-1" vertex="1" connectable="0">
          <mxGeometry x="658" y="168" width="142" height="38" as="geometry" />
        </mxCell>
        <mxCell id="N3rQtNJv3S-D7zblpcgc-20" value="" style="outlineConnect=0;fontColor=#232F3E;gradientColor=none;fillColor=#5A30B5;strokeColor=none;dashed=0;verticalLabelPosition=bottom;verticalAlign=top;align=center;html=1;fontSize=12;fontStyle=0;aspect=fixed;pointerEvents=1;shape=mxgraph.aws4.internet_gateway;shadow=0;" parent="N3rQtNJv3S-D7zblpcgc-19" vertex="1">
          <mxGeometry width="38" height="38" as="geometry" />
        </mxCell>
        <mxCell id="N3rQtNJv3S-D7zblpcgc-21" value="internet-gateway" style="text;html=1;resizable=0;autosize=1;align=center;verticalAlign=middle;points=[];fillColor=none;strokeColor=none;rounded=0;shadow=0;" parent="N3rQtNJv3S-D7zblpcgc-19" vertex="1">
          <mxGeometry x="37" y="8" width="100" height="20" as="geometry" />
        </mxCell>
        <mxCell id="N3rQtNJv3S-D7zblpcgc-22" style="edgeStyle=orthogonalEdgeStyle;rounded=0;orthogonalLoop=1;jettySize=auto;html=1;" parent="bKZRrwMjLIxIwUCSkcXs-1" source="N3rQtNJv3S-D7zblpcgc-17" target="N3rQtNJv3S-D7zblpcgc-20" edge="1">
          <mxGeometry relative="1" as="geometry" />
        </mxCell>
        <mxCell id="N3rQtNJv3S-D7zblpcgc-23" value="" style="outlineConnect=0;fontColor=#232F3E;gradientColor=none;fillColor=#D86613;strokeColor=none;dashed=0;verticalLabelPosition=bottom;verticalAlign=top;align=center;html=1;fontSize=12;fontStyle=0;aspect=fixed;pointerEvents=1;shape=mxgraph.aws4.instance2;" parent="bKZRrwMjLIxIwUCSkcXs-1" vertex="1">
          <mxGeometry x="834" y="276" width="92" height="92" as="geometry" />
        </mxCell>
        <mxCell id="N3rQtNJv3S-D7zblpcgc-24" value="web-server" style="text;html=1;resizable=0;autosize=1;align=center;verticalAlign=middle;points=[];fillColor=none;strokeColor=none;rounded=0;shadow=0;fontSize=10;" parent="bKZRrwMjLIxIwUCSkcXs-1" vertex="1">
          <mxGeometry x="845" y="337.52363636363634" width="70" height="20" as="geometry" />
        </mxCell>
        <mxCell id="N3rQtNJv3S-D7zblpcgc-25" value="" style="group" parent="bKZRrwMjLIxIwUCSkcXs-1" vertex="1" connectable="0">
          <mxGeometry x="346" y="240" width="220" height="170" as="geometry" />
        </mxCell>
        <mxCell id="N3rQtNJv3S-D7zblpcgc-26" value="public-subnet-1 (10.10.0.0/24)" style="points=[[0,0],[0.25,0],[0.5,0],[0.75,0],[1,0],[1,0.25],[1,0.5],[1,0.75],[1,1],[0.75,1],[0.5,1],[0.25,1],[0,1],[0,0.75],[0,0.5],[0,0.25]];outlineConnect=0;gradientColor=none;html=1;whiteSpace=wrap;fontSize=11;fontStyle=0;shape=mxgraph.aws4.group;grIcon=mxgraph.aws4.group_security_group;grStroke=0;strokeColor=#248814;fillColor=#E9F3E6;verticalAlign=top;align=left;spacingLeft=30;fontColor=#248814;dashed=0;" parent="N3rQtNJv3S-D7zblpcgc-25" vertex="1">
          <mxGeometry width="220" height="170" as="geometry" />
        </mxCell>
        <mxCell id="N3rQtNJv3S-D7zblpcgc-27" value="" style="outlineConnect=0;fontColor=#FFFFFF;gradientColor=none;fillColor=#006600;strokeColor=none;dashed=0;verticalLabelPosition=bottom;verticalAlign=top;align=center;html=1;fontSize=12;fontStyle=0;aspect=fixed;pointerEvents=1;shape=mxgraph.aws4.route_table;shadow=0;" parent="N3rQtNJv3S-D7zblpcgc-25" vertex="1">
          <mxGeometry x="11.259999999999991" y="138.125" width="18.64333333333333" height="18.161666666666665" as="geometry" />
        </mxCell>
        <mxCell id="N3rQtNJv3S-D7zblpcgc-28" value="nat-gateway" style="outlineConnect=0;fontColor=#232F3E;gradientColor=none;fillColor=#A166FF;strokeColor=none;dashed=0;verticalLabelPosition=bottom;verticalAlign=top;align=center;html=1;fontSize=12;fontStyle=0;aspect=fixed;pointerEvents=1;shape=mxgraph.aws4.nat_gateway;" parent="N3rQtNJv3S-D7zblpcgc-25" vertex="1">
          <mxGeometry x="91" y="50" width="38" height="38" as="geometry" />
        </mxCell>
        <mxCell id="N3rQtNJv3S-D7zblpcgc-29" value="" style="outlineConnect=0;fontColor=#232F3E;gradientColor=none;fillColor=#277116;strokeColor=none;dashed=0;verticalLabelPosition=bottom;verticalAlign=top;align=center;html=1;fontSize=12;fontStyle=0;aspect=fixed;pointerEvents=1;shape=mxgraph.aws4.volume;" parent="bKZRrwMjLIxIwUCSkcXs-1" vertex="1">
          <mxGeometry x="884" y="310.78" width="22" height="27.68" as="geometry" />
        </mxCell>
        <mxCell id="N3rQtNJv3S-D7zblpcgc-30" value="" style="group" parent="bKZRrwMjLIxIwUCSkcXs-1" vertex="1" connectable="0">
          <mxGeometry x="197" y="388" width="64.5" height="70.96363636363634" as="geometry" />
        </mxCell>
        <mxCell id="N3rQtNJv3S-D7zblpcgc-31" value="" style="outlineConnect=0;fontColor=#232F3E;gradientColor=none;fillColor=#277116;strokeColor=none;dashed=0;verticalLabelPosition=bottom;verticalAlign=top;align=center;html=1;fontSize=12;fontStyle=0;aspect=fixed;pointerEvents=1;shape=mxgraph.aws4.bucket_with_objects;" parent="N3rQtNJv3S-D7zblpcgc-30" vertex="1">
          <mxGeometry width="49" height="50.96" as="geometry" />
        </mxCell>
        <mxCell id="N3rQtNJv3S-D7zblpcgc-32" value="photos-bucket" style="text;html=1;resizable=0;autosize=1;align=center;verticalAlign=middle;points=[];fillColor=none;strokeColor=none;rounded=0;shadow=0;fontSize=10;" parent="N3rQtNJv3S-D7zblpcgc-30" vertex="1">
          <mxGeometry x="-15.5" y="50.96363636363634" width="80" height="20" as="geometry" />
        </mxCell>
        <mxCell id="N3rQtNJv3S-D7zblpcgc-36" value="" style="outlineConnect=0;fontColor=#232F3E;gradientColor=none;fillColor=#232F3E;strokeColor=none;dashed=0;verticalLabelPosition=bottom;verticalAlign=top;align=center;html=1;fontSize=12;fontStyle=0;aspect=fixed;pointerEvents=1;shape=mxgraph.aws4.client;" parent="bKZRrwMjLIxIwUCSkcXs-1" vertex="1">
          <mxGeometry x="1190" y="49.99999999999999" width="57" height="55.54" as="geometry" />
        </mxCell>
        <mxCell id="N3rQtNJv3S-D7zblpcgc-38" value="" style="group" parent="bKZRrwMjLIxIwUCSkcXs-1" vertex="1" connectable="0">
          <mxGeometry x="67" y="337.52000000000004" width="90" height="68.18363636363631" as="geometry" />
        </mxCell>
        <mxCell id="N3rQtNJv3S-D7zblpcgc-39" value="" style="group" parent="N3rQtNJv3S-D7zblpcgc-38" vertex="1" connectable="0">
          <mxGeometry x="-9" y="18.279999999999973" width="90" height="49.90363636363634" as="geometry" />
        </mxCell>
        <mxCell id="N3rQtNJv3S-D7zblpcgc-40" value="" style="outlineConnect=0;fontColor=#232F3E;gradientColor=none;fillColor=#C7131F;strokeColor=none;dashed=0;verticalLabelPosition=bottom;verticalAlign=top;align=center;html=1;fontSize=12;fontStyle=0;aspect=fixed;pointerEvents=1;shape=mxgraph.aws4.role;" parent="N3rQtNJv3S-D7zblpcgc-39" vertex="1">
          <mxGeometry x="15" width="53" height="29.9" as="geometry" />
        </mxCell>
        <mxCell id="N3rQtNJv3S-D7zblpcgc-41" value="web-server-role" style="text;html=1;resizable=0;autosize=1;align=center;verticalAlign=middle;points=[];fillColor=none;strokeColor=none;rounded=0;shadow=0;fontSize=10;" parent="N3rQtNJv3S-D7zblpcgc-39" vertex="1">
          <mxGeometry y="29.903636363636338" width="90" height="20" as="geometry" />
        </mxCell>
        <mxCell id="N3rQtNJv3S-D7zblpcgc-42" value="" style="outlineConnect=0;fontColor=#232F3E;gradientColor=none;fillColor=#C7131F;strokeColor=none;dashed=0;verticalLabelPosition=bottom;verticalAlign=top;align=center;html=1;fontSize=12;fontStyle=0;aspect=fixed;pointerEvents=1;shape=mxgraph.aws4.role;" parent="bKZRrwMjLIxIwUCSkcXs-1" vertex="1">
          <mxGeometry x="849" y="316.72" width="28" height="15.8" as="geometry" />
        </mxCell>
        <mxCell id="N3rQtNJv3S-D7zblpcgc-44" value="web-server-policy" style="outlineConnect=0;fontColor=#232F3E;gradientColor=none;fillColor=#FF5252;strokeColor=none;dashed=0;verticalLabelPosition=bottom;verticalAlign=top;align=center;html=1;fontSize=12;fontStyle=0;aspect=fixed;pointerEvents=1;shape=mxgraph.aws4.permissions;" parent="bKZRrwMjLIxIwUCSkcXs-1" vertex="1">
          <mxGeometry x="80" y="450" width="39" height="49.07" as="geometry" />
        </mxCell>
        <mxCell id="4YSTIOoLhXIGHMCJzw3H-0" style="edgeStyle=orthogonalEdgeStyle;rounded=0;orthogonalLoop=1;jettySize=auto;html=1;" parent="bKZRrwMjLIxIwUCSkcXs-1" edge="1">
          <mxGeometry relative="1" as="geometry">
            <mxPoint x="677" y="205.99956729674363" as="sourcePoint" />
            <mxPoint x="834" y="322" as="targetPoint" />
            <Array as="points">
              <mxPoint x="677" y="322" />
            </Array>
          </mxGeometry>
        </mxCell>
        <mxCell id="yUvaHoELJQlhaqKikFmK-0" style="edgeStyle=orthogonalEdgeStyle;rounded=0;orthogonalLoop=1;jettySize=auto;html=1;" parent="bKZRrwMjLIxIwUCSkcXs-1" source="N3rQtNJv3S-D7zblpcgc-36" target="N3rQtNJv3S-D7zblpcgc-17" edge="1">
          <mxGeometry relative="1" as="geometry">
            <mxPoint x="1190.2441991915248" y="77.71428571428567" as="sourcePoint" />
            <mxPoint x="800" y="70" as="targetPoint" />
          </mxGeometry>
        </mxCell>
      </root>
    </mxGraphModel>
  </diagram>
  <diagram id="AKlVPOJ8oQ2YQqG1w4W4" name="Demo06">
    <mxGraphModel dx="1585" dy="1097" grid="1" gridSize="10" guides="1" tooltips="1" connect="1" arrows="1" fold="1" page="1" pageScale="1" pageWidth="850" pageHeight="1100" math="0" shadow="0">
      <root>
        <mxCell id="pXXhSnWqdqu24YQGVz9b-0" />
        <mxCell id="pXXhSnWqdqu24YQGVz9b-1" parent="pXXhSnWqdqu24YQGVz9b-0" />
        <mxCell id="pXXhSnWqdqu24YQGVz9b-2" value="Region" style="points=[[0,0],[0.25,0],[0.5,0],[0.75,0],[1,0],[1,0.25],[1,0.5],[1,0.75],[1,1],[0.75,1],[0.5,1],[0.25,1],[0,1],[0,0.75],[0,0.5],[0,0.25]];outlineConnect=0;gradientColor=none;html=1;whiteSpace=wrap;fontSize=12;fontStyle=0;shape=mxgraph.aws4.group;grIcon=mxgraph.aws4.group_region;strokeColor=#147EBA;fillColor=none;verticalAlign=top;align=left;spacingLeft=30;fontColor=#147EBA;dashed=0;" parent="pXXhSnWqdqu24YQGVz9b-1" vertex="1">
          <mxGeometry x="157" y="150" width="940" height="570" as="geometry" />
        </mxCell>
        <mxCell id="pXXhSnWqdqu24YQGVz9b-3" value="" style="points=[[0,0],[0.25,0],[0.5,0],[0.75,0],[1,0],[1,0.25],[1,0.5],[1,0.75],[1,1],[0.75,1],[0.5,1],[0.25,1],[0,1],[0,0.75],[0,0.5],[0,0.25]];outlineConnect=0;gradientColor=none;html=1;whiteSpace=wrap;fontSize=12;fontStyle=0;shape=mxgraph.aws4.group;grIcon=mxgraph.aws4.group_aws_cloud_alt;strokeColor=#232F3E;fillColor=none;verticalAlign=top;align=left;spacingLeft=30;fontColor=#232F3E;dashed=0;" parent="pXXhSnWqdqu24YQGVz9b-1" vertex="1">
          <mxGeometry x="41" y="110" width="1119" height="640" as="geometry" />
        </mxCell>
        <mxCell id="pXXhSnWqdqu24YQGVz9b-4" value="&lt;font color=&quot;#006600&quot;&gt;vpc (10.10.0.0/16)&lt;/font&gt;" style="points=[[0,0],[0.25,0],[0.5,0],[0.75,0],[1,0],[1,0.25],[1,0.5],[1,0.75],[1,1],[0.75,1],[0.5,1],[0.25,1],[0,1],[0,0.75],[0,0.5],[0,0.25]];outlineConnect=0;gradientColor=none;html=1;whiteSpace=wrap;fontSize=12;fontStyle=0;shape=mxgraph.aws4.group;grIcon=mxgraph.aws4.group_vpc;strokeColor=#248814;fillColor=none;verticalAlign=top;align=left;spacingLeft=30;fontColor=#AAB7B8;dashed=0;" parent="pXXhSnWqdqu24YQGVz9b-1" vertex="1">
          <mxGeometry x="297" y="196" width="760" height="504" as="geometry" />
        </mxCell>
        <mxCell id="pXXhSnWqdqu24YQGVz9b-6" value="Availability Zone 2" style="fillColor=none;strokeColor=#147EBA;dashed=1;verticalAlign=bottom;fontStyle=0;fontColor=#147EBA;" parent="pXXhSnWqdqu24YQGVz9b-1" vertex="1">
          <mxGeometry x="757" y="230" width="280" height="460" as="geometry" />
        </mxCell>
        <mxCell id="pXXhSnWqdqu24YQGVz9b-7" value="" style="group" parent="pXXhSnWqdqu24YQGVz9b-1" vertex="1" connectable="0">
          <mxGeometry x="785" y="430" width="220" height="230" as="geometry" />
        </mxCell>
        <mxCell id="pXXhSnWqdqu24YQGVz9b-8" value="private-subnet-2 (10.10.4.0/23)" style="points=[[0,0],[0.25,0],[0.5,0],[0.75,0],[1,0],[1,0.25],[1,0.5],[1,0.75],[1,1],[0.75,1],[0.5,1],[0.25,1],[0,1],[0,0.75],[0,0.5],[0,0.25]];outlineConnect=0;gradientColor=none;html=1;whiteSpace=wrap;fontSize=11;fontStyle=0;shape=mxgraph.aws4.group;grIcon=mxgraph.aws4.group_security_group;grStroke=0;strokeColor=#147EBA;fillColor=#E6F2F8;verticalAlign=top;align=left;spacingLeft=30;fontColor=#147EBA;dashed=0;" parent="pXXhSnWqdqu24YQGVz9b-7" vertex="1">
          <mxGeometry width="220" height="230.00000000000003" as="geometry" />
        </mxCell>
        <mxCell id="pXXhSnWqdqu24YQGVz9b-9" value="" style="outlineConnect=0;fontColor=#FFFFFF;gradientColor=none;fillColor=#147dba;strokeColor=none;dashed=0;verticalLabelPosition=bottom;verticalAlign=top;align=center;html=1;fontSize=12;fontStyle=0;aspect=fixed;pointerEvents=1;shape=mxgraph.aws4.route_table;shadow=0;" parent="pXXhSnWqdqu24YQGVz9b-7" vertex="1">
          <mxGeometry x="192" y="196.77777777777783" width="19.74" height="19.23" as="geometry" />
        </mxCell>
        <mxCell id="pXXhSnWqdqu24YQGVz9b-10" value="Availability Zone 1" style="fillColor=none;strokeColor=#147EBA;dashed=1;verticalAlign=bottom;fontStyle=0;fontColor=#147EBA;" parent="pXXhSnWqdqu24YQGVz9b-1" vertex="1">
          <mxGeometry x="317" y="230" width="280" height="460" as="geometry" />
        </mxCell>
        <mxCell id="pXXhSnWqdqu24YQGVz9b-11" value="" style="group" parent="pXXhSnWqdqu24YQGVz9b-1" vertex="1" connectable="0">
          <mxGeometry x="346" y="430" width="220" height="230" as="geometry" />
        </mxCell>
        <mxCell id="pXXhSnWqdqu24YQGVz9b-12" value="private-subnet-1 (10.10.2.0/23)" style="points=[[0,0],[0.25,0],[0.5,0],[0.75,0],[1,0],[1,0.25],[1,0.5],[1,0.75],[1,1],[0.75,1],[0.5,1],[0.25,1],[0,1],[0,0.75],[0,0.5],[0,0.25]];outlineConnect=0;gradientColor=none;html=1;whiteSpace=wrap;fontSize=11;fontStyle=0;shape=mxgraph.aws4.group;grIcon=mxgraph.aws4.group_security_group;grStroke=0;strokeColor=#147EBA;fillColor=#E6F2F8;verticalAlign=top;align=left;spacingLeft=30;fontColor=#147EBA;dashed=0;" parent="pXXhSnWqdqu24YQGVz9b-11" vertex="1">
          <mxGeometry width="220" height="230" as="geometry" />
        </mxCell>
        <mxCell id="pXXhSnWqdqu24YQGVz9b-13" value="" style="outlineConnect=0;fontColor=#FFFFFF;gradientColor=none;fillColor=#147dba;strokeColor=none;dashed=0;verticalLabelPosition=bottom;verticalAlign=top;align=center;html=1;fontSize=12;fontStyle=0;aspect=fixed;pointerEvents=1;shape=mxgraph.aws4.route_table;shadow=0;" parent="pXXhSnWqdqu24YQGVz9b-11" vertex="1">
          <mxGeometry x="11.259999999999991" y="195.6716417910448" width="19.74" height="19.23" as="geometry" />
        </mxCell>
        <mxCell id="pXXhSnWqdqu24YQGVz9b-14" value="" style="group" parent="pXXhSnWqdqu24YQGVz9b-1" vertex="1" connectable="0">
          <mxGeometry x="785" y="239" width="220" height="181" as="geometry" />
        </mxCell>
        <mxCell id="pXXhSnWqdqu24YQGVz9b-15" value="public-subnet-2 (10.10.1.0/24)" style="points=[[0,0],[0.25,0],[0.5,0],[0.75,0],[1,0],[1,0.25],[1,0.5],[1,0.75],[1,1],[0.75,1],[0.5,1],[0.25,1],[0,1],[0,0.75],[0,0.5],[0,0.25]];outlineConnect=0;gradientColor=none;html=1;whiteSpace=wrap;fontSize=11;fontStyle=0;shape=mxgraph.aws4.group;grIcon=mxgraph.aws4.group_security_group;grStroke=0;strokeColor=#248814;fillColor=#E9F3E6;verticalAlign=top;align=left;spacingLeft=30;fontColor=#248814;dashed=0;" parent="pXXhSnWqdqu24YQGVz9b-14" vertex="1">
          <mxGeometry width="220" height="170" as="geometry" />
        </mxCell>
        <mxCell id="pXXhSnWqdqu24YQGVz9b-16" value="" style="outlineConnect=0;fontColor=#FFFFFF;gradientColor=none;fillColor=#006600;strokeColor=none;dashed=0;verticalLabelPosition=bottom;verticalAlign=top;align=center;html=1;fontSize=12;fontStyle=0;aspect=fixed;pointerEvents=1;shape=mxgraph.aws4.route_table;shadow=0;" parent="pXXhSnWqdqu24YQGVz9b-14" vertex="1">
          <mxGeometry x="192" y="147.27329192546583" width="19.74" height="19.23" as="geometry" />
        </mxCell>
        <mxCell id="pXXhSnWqdqu24YQGVz9b-17" value="web-server-security-group" style="fillColor=none;strokeColor=#DD3522;verticalAlign=bottom;fontStyle=0;fontColor=#DD3522;fontSize=10;" parent="pXXhSnWqdqu24YQGVz9b-1" vertex="1">
          <mxGeometry x="817" y="272.08" width="130" height="127.92" as="geometry" />
        </mxCell>
        <mxCell id="pXXhSnWqdqu24YQGVz9b-21" value="" style="group" parent="pXXhSnWqdqu24YQGVz9b-1" vertex="1" connectable="0">
          <mxGeometry x="686" y="42.00000000000001" width="60" height="49.53999999999998" as="geometry" />
        </mxCell>
        <mxCell id="pXXhSnWqdqu24YQGVz9b-22" value="" style="outlineConnect=0;fontColor=#232F3E;gradientColor=none;fillColor=#232F3E;strokeColor=none;dashed=0;verticalLabelPosition=bottom;verticalAlign=top;align=center;html=1;fontSize=12;fontStyle=0;aspect=fixed;pointerEvents=1;shape=mxgraph.aws4.internet;" parent="pXXhSnWqdqu24YQGVz9b-21" vertex="1">
          <mxGeometry x="10" y="19.999999999999986" width="48" height="29.54" as="geometry" />
        </mxCell>
        <mxCell id="pXXhSnWqdqu24YQGVz9b-23" value="Internet" style="text;html=1;resizable=0;autosize=1;align=center;verticalAlign=middle;points=[];fillColor=none;strokeColor=none;rounded=0;shadow=0;" parent="pXXhSnWqdqu24YQGVz9b-21" vertex="1">
          <mxGeometry width="60" height="20" as="geometry" />
        </mxCell>
        <mxCell id="pXXhSnWqdqu24YQGVz9b-24" value="" style="group" parent="pXXhSnWqdqu24YQGVz9b-1" vertex="1" connectable="0">
          <mxGeometry x="658" y="168" width="142" height="38" as="geometry" />
        </mxCell>
        <mxCell id="pXXhSnWqdqu24YQGVz9b-25" value="" style="outlineConnect=0;fontColor=#232F3E;gradientColor=none;fillColor=#5A30B5;strokeColor=none;dashed=0;verticalLabelPosition=bottom;verticalAlign=top;align=center;html=1;fontSize=12;fontStyle=0;aspect=fixed;pointerEvents=1;shape=mxgraph.aws4.internet_gateway;shadow=0;" parent="pXXhSnWqdqu24YQGVz9b-24" vertex="1">
          <mxGeometry width="38" height="38" as="geometry" />
        </mxCell>
        <mxCell id="pXXhSnWqdqu24YQGVz9b-26" value="internet-gateway" style="text;html=1;resizable=0;autosize=1;align=center;verticalAlign=middle;points=[];fillColor=none;strokeColor=none;rounded=0;shadow=0;" parent="pXXhSnWqdqu24YQGVz9b-24" vertex="1">
          <mxGeometry x="37" y="8" width="100" height="20" as="geometry" />
        </mxCell>
        <mxCell id="pXXhSnWqdqu24YQGVz9b-27" style="edgeStyle=orthogonalEdgeStyle;rounded=0;orthogonalLoop=1;jettySize=auto;html=1;" parent="pXXhSnWqdqu24YQGVz9b-1" source="pXXhSnWqdqu24YQGVz9b-22" target="pXXhSnWqdqu24YQGVz9b-25" edge="1">
          <mxGeometry relative="1" as="geometry" />
        </mxCell>
        <mxCell id="pXXhSnWqdqu24YQGVz9b-28" value="" style="outlineConnect=0;fontColor=#232F3E;gradientColor=none;fillColor=#D86613;strokeColor=none;dashed=0;verticalLabelPosition=bottom;verticalAlign=top;align=center;html=1;fontSize=12;fontStyle=0;aspect=fixed;pointerEvents=1;shape=mxgraph.aws4.instance2;" parent="pXXhSnWqdqu24YQGVz9b-1" vertex="1">
          <mxGeometry x="834" y="276" width="92" height="92" as="geometry" />
        </mxCell>
        <mxCell id="pXXhSnWqdqu24YQGVz9b-29" value="web-server" style="text;html=1;resizable=0;autosize=1;align=center;verticalAlign=middle;points=[];fillColor=none;strokeColor=none;rounded=0;shadow=0;fontSize=10;" parent="pXXhSnWqdqu24YQGVz9b-1" vertex="1">
          <mxGeometry x="845" y="337.52363636363634" width="70" height="20" as="geometry" />
        </mxCell>
        <mxCell id="pXXhSnWqdqu24YQGVz9b-30" value="" style="group" parent="pXXhSnWqdqu24YQGVz9b-1" vertex="1" connectable="0">
          <mxGeometry x="346" y="240" width="220" height="170" as="geometry" />
        </mxCell>
        <mxCell id="pXXhSnWqdqu24YQGVz9b-31" value="public-subnet-1 (10.10.0.0/24)" style="points=[[0,0],[0.25,0],[0.5,0],[0.75,0],[1,0],[1,0.25],[1,0.5],[1,0.75],[1,1],[0.75,1],[0.5,1],[0.25,1],[0,1],[0,0.75],[0,0.5],[0,0.25]];outlineConnect=0;gradientColor=none;html=1;whiteSpace=wrap;fontSize=11;fontStyle=0;shape=mxgraph.aws4.group;grIcon=mxgraph.aws4.group_security_group;grStroke=0;strokeColor=#248814;fillColor=#E9F3E6;verticalAlign=top;align=left;spacingLeft=30;fontColor=#248814;dashed=0;" parent="pXXhSnWqdqu24YQGVz9b-30" vertex="1">
          <mxGeometry width="220" height="170" as="geometry" />
        </mxCell>
        <mxCell id="pXXhSnWqdqu24YQGVz9b-32" value="" style="outlineConnect=0;fontColor=#FFFFFF;gradientColor=none;fillColor=#006600;strokeColor=none;dashed=0;verticalLabelPosition=bottom;verticalAlign=top;align=center;html=1;fontSize=12;fontStyle=0;aspect=fixed;pointerEvents=1;shape=mxgraph.aws4.route_table;shadow=0;" parent="pXXhSnWqdqu24YQGVz9b-30" vertex="1">
          <mxGeometry x="11.259999999999991" y="138.125" width="18.64333333333333" height="18.161666666666665" as="geometry" />
        </mxCell>
        <mxCell id="pXXhSnWqdqu24YQGVz9b-33" value="nat-gateway" style="outlineConnect=0;fontColor=#232F3E;gradientColor=none;fillColor=#A166FF;strokeColor=none;dashed=0;verticalLabelPosition=bottom;verticalAlign=top;align=center;html=1;fontSize=12;fontStyle=0;aspect=fixed;pointerEvents=1;shape=mxgraph.aws4.nat_gateway;" parent="pXXhSnWqdqu24YQGVz9b-30" vertex="1">
          <mxGeometry x="91" y="50" width="38" height="38" as="geometry" />
        </mxCell>
        <mxCell id="pXXhSnWqdqu24YQGVz9b-34" value="" style="outlineConnect=0;fontColor=#232F3E;gradientColor=none;fillColor=#277116;strokeColor=none;dashed=0;verticalLabelPosition=bottom;verticalAlign=top;align=center;html=1;fontSize=12;fontStyle=0;aspect=fixed;pointerEvents=1;shape=mxgraph.aws4.volume;" parent="pXXhSnWqdqu24YQGVz9b-1" vertex="1">
          <mxGeometry x="884" y="310.78" width="22" height="27.68" as="geometry" />
        </mxCell>
        <mxCell id="pXXhSnWqdqu24YQGVz9b-35" value="" style="group" parent="pXXhSnWqdqu24YQGVz9b-1" vertex="1" connectable="0">
          <mxGeometry x="197" y="388" width="64.5" height="70.96363636363634" as="geometry" />
        </mxCell>
        <mxCell id="pXXhSnWqdqu24YQGVz9b-36" value="" style="outlineConnect=0;fontColor=#232F3E;gradientColor=none;fillColor=#277116;strokeColor=none;dashed=0;verticalLabelPosition=bottom;verticalAlign=top;align=center;html=1;fontSize=12;fontStyle=0;aspect=fixed;pointerEvents=1;shape=mxgraph.aws4.bucket_with_objects;" parent="pXXhSnWqdqu24YQGVz9b-35" vertex="1">
          <mxGeometry width="49" height="50.96" as="geometry" />
        </mxCell>
        <mxCell id="pXXhSnWqdqu24YQGVz9b-37" value="photos-bucket" style="text;html=1;resizable=0;autosize=1;align=center;verticalAlign=middle;points=[];fillColor=none;strokeColor=none;rounded=0;shadow=0;fontSize=10;" parent="pXXhSnWqdqu24YQGVz9b-35" vertex="1">
          <mxGeometry x="-15.5" y="50.96363636363634" width="80" height="20" as="geometry" />
        </mxCell>
        <mxCell id="pXXhSnWqdqu24YQGVz9b-43" value="" style="outlineConnect=0;fontColor=#232F3E;gradientColor=none;fillColor=#232F3E;strokeColor=none;dashed=0;verticalLabelPosition=bottom;verticalAlign=top;align=center;html=1;fontSize=12;fontStyle=0;aspect=fixed;pointerEvents=1;shape=mxgraph.aws4.client;" parent="pXXhSnWqdqu24YQGVz9b-1" vertex="1">
          <mxGeometry x="1190" y="49.99999999999999" width="57" height="55.54" as="geometry" />
        </mxCell>
        <mxCell id="pXXhSnWqdqu24YQGVz9b-44" style="edgeStyle=orthogonalEdgeStyle;rounded=0;orthogonalLoop=1;jettySize=auto;html=1;" parent="pXXhSnWqdqu24YQGVz9b-1" source="pXXhSnWqdqu24YQGVz9b-43" target="pXXhSnWqdqu24YQGVz9b-22" edge="1">
          <mxGeometry relative="1" as="geometry">
            <mxPoint x="1230" y="190" as="targetPoint" />
          </mxGeometry>
        </mxCell>
        <mxCell id="pXXhSnWqdqu24YQGVz9b-53" value="" style="outlineConnect=0;fontColor=#232F3E;gradientColor=none;fillColor=#C7131F;strokeColor=none;dashed=0;verticalLabelPosition=bottom;verticalAlign=top;align=center;html=1;fontSize=12;fontStyle=0;aspect=fixed;pointerEvents=1;shape=mxgraph.aws4.role;" parent="pXXhSnWqdqu24YQGVz9b-1" vertex="1">
          <mxGeometry x="849" y="316.72" width="28" height="15.8" as="geometry" />
        </mxCell>
        <mxCell id="pXXhSnWqdqu24YQGVz9b-55" value="&lt;font style=&quot;font-size: 10px&quot;&gt;employees-table&lt;/font&gt;" style="outlineConnect=0;fontColor=#232F3E;gradientColor=none;fillColor=#527FFF;strokeColor=none;dashed=0;verticalLabelPosition=bottom;verticalAlign=top;align=center;html=1;fontSize=12;fontStyle=0;aspect=fixed;pointerEvents=1;shape=mxgraph.aws4.table;" parent="pXXhSnWqdqu24YQGVz9b-1" vertex="1">
          <mxGeometry x="196.13" y="250" width="55.75" height="55.75" as="geometry" />
        </mxCell>
        <mxCell id="JY3fK2S4iRnAheiMkU5b-0" value="" style="group" parent="pXXhSnWqdqu24YQGVz9b-1" vertex="1" connectable="0">
          <mxGeometry x="67" y="337.52000000000004" width="90" height="68.18363636363631" as="geometry" />
        </mxCell>
        <mxCell id="JY3fK2S4iRnAheiMkU5b-1" value="" style="group" parent="JY3fK2S4iRnAheiMkU5b-0" vertex="1" connectable="0">
          <mxGeometry x="-9" y="18.279999999999973" width="90" height="49.90363636363634" as="geometry" />
        </mxCell>
        <mxCell id="JY3fK2S4iRnAheiMkU5b-2" value="" style="outlineConnect=0;fontColor=#232F3E;gradientColor=none;fillColor=#C7131F;strokeColor=none;dashed=0;verticalLabelPosition=bottom;verticalAlign=top;align=center;html=1;fontSize=12;fontStyle=0;aspect=fixed;pointerEvents=1;shape=mxgraph.aws4.role;" parent="JY3fK2S4iRnAheiMkU5b-1" vertex="1">
          <mxGeometry x="15" width="53" height="29.9" as="geometry" />
        </mxCell>
        <mxCell id="JY3fK2S4iRnAheiMkU5b-3" value="web-server-role" style="text;html=1;resizable=0;autosize=1;align=center;verticalAlign=middle;points=[];fillColor=none;strokeColor=none;rounded=0;shadow=0;fontSize=10;" parent="JY3fK2S4iRnAheiMkU5b-1" vertex="1">
          <mxGeometry y="29.903636363636338" width="90" height="20" as="geometry" />
        </mxCell>
        <mxCell id="JY3fK2S4iRnAheiMkU5b-4" value="web-server-policy" style="outlineConnect=0;fontColor=#232F3E;gradientColor=none;fillColor=#FF5252;strokeColor=none;dashed=0;verticalLabelPosition=bottom;verticalAlign=top;align=center;html=1;fontSize=12;fontStyle=0;aspect=fixed;pointerEvents=1;shape=mxgraph.aws4.permissions;" parent="pXXhSnWqdqu24YQGVz9b-1" vertex="1">
          <mxGeometry x="80" y="450" width="39" height="49.07" as="geometry" />
        </mxCell>
        <mxCell id="8HHLOJ6VXmBMmJonOQIr-0" style="edgeStyle=orthogonalEdgeStyle;rounded=0;orthogonalLoop=1;jettySize=auto;html=1;" parent="pXXhSnWqdqu24YQGVz9b-1" edge="1">
          <mxGeometry relative="1" as="geometry">
            <mxPoint x="677" y="205.99956729674363" as="sourcePoint" />
            <mxPoint x="834" y="322" as="targetPoint" />
            <Array as="points">
              <mxPoint x="677" y="322" />
            </Array>
          </mxGeometry>
        </mxCell>
      </root>
    </mxGraphModel>
  </diagram>
  <diagram id="NEuRyGdCC7NJJVe8_CSB" name="Demo07">
    <mxGraphModel dx="1490" dy="1097" grid="1" gridSize="10" guides="1" tooltips="1" connect="1" arrows="1" fold="1" page="1" pageScale="1" pageWidth="850" pageHeight="1100" math="0" shadow="0">
      <root>
        <mxCell id="PuFuZEPEEVkk1p77tAiM-0" />
        <mxCell id="PuFuZEPEEVkk1p77tAiM-1" parent="PuFuZEPEEVkk1p77tAiM-0" />
        <mxCell id="UvWHuqiuJllSWviR7lVY-0" value="Region" style="points=[[0,0],[0.25,0],[0.5,0],[0.75,0],[1,0],[1,0.25],[1,0.5],[1,0.75],[1,1],[0.75,1],[0.5,1],[0.25,1],[0,1],[0,0.75],[0,0.5],[0,0.25]];outlineConnect=0;gradientColor=none;html=1;whiteSpace=wrap;fontSize=12;fontStyle=0;shape=mxgraph.aws4.group;grIcon=mxgraph.aws4.group_region;strokeColor=#147EBA;fillColor=none;verticalAlign=top;align=left;spacingLeft=30;fontColor=#147EBA;dashed=0;" parent="PuFuZEPEEVkk1p77tAiM-1" vertex="1">
          <mxGeometry x="157" y="150" width="940" height="570" as="geometry" />
        </mxCell>
        <mxCell id="UvWHuqiuJllSWviR7lVY-1" value="" style="points=[[0,0],[0.25,0],[0.5,0],[0.75,0],[1,0],[1,0.25],[1,0.5],[1,0.75],[1,1],[0.75,1],[0.5,1],[0.25,1],[0,1],[0,0.75],[0,0.5],[0,0.25]];outlineConnect=0;gradientColor=none;html=1;whiteSpace=wrap;fontSize=12;fontStyle=0;shape=mxgraph.aws4.group;grIcon=mxgraph.aws4.group_aws_cloud_alt;strokeColor=#232F3E;fillColor=none;verticalAlign=top;align=left;spacingLeft=30;fontColor=#232F3E;dashed=0;" parent="PuFuZEPEEVkk1p77tAiM-1" vertex="1">
          <mxGeometry x="41" y="110" width="1119" height="640" as="geometry" />
        </mxCell>
        <mxCell id="UvWHuqiuJllSWviR7lVY-2" value="&lt;font color=&quot;#006600&quot;&gt;vpc (10.10.0.0/16)&lt;/font&gt;" style="points=[[0,0],[0.25,0],[0.5,0],[0.75,0],[1,0],[1,0.25],[1,0.5],[1,0.75],[1,1],[0.75,1],[0.5,1],[0.25,1],[0,1],[0,0.75],[0,0.5],[0,0.25]];outlineConnect=0;gradientColor=none;html=1;whiteSpace=wrap;fontSize=12;fontStyle=0;shape=mxgraph.aws4.group;grIcon=mxgraph.aws4.group_vpc;strokeColor=#248814;fillColor=none;verticalAlign=top;align=left;spacingLeft=30;fontColor=#AAB7B8;dashed=0;" parent="PuFuZEPEEVkk1p77tAiM-1" vertex="1">
          <mxGeometry x="297" y="196" width="760" height="504" as="geometry" />
        </mxCell>
        <mxCell id="UvWHuqiuJllSWviR7lVY-3" value="web-alb-security-group" style="fillColor=none;strokeColor=#DD3522;verticalAlign=bottom;fontStyle=0;fontColor=#DD3522;fontSize=10;" parent="PuFuZEPEEVkk1p77tAiM-1" vertex="1">
          <mxGeometry x="617" y="259.6" width="120" height="97.92" as="geometry" />
        </mxCell>
        <mxCell id="UvWHuqiuJllSWviR7lVY-4" value="Availability Zone 2" style="fillColor=none;strokeColor=#147EBA;dashed=1;verticalAlign=bottom;fontStyle=0;fontColor=#147EBA;" parent="PuFuZEPEEVkk1p77tAiM-1" vertex="1">
          <mxGeometry x="757" y="230" width="280" height="460" as="geometry" />
        </mxCell>
        <mxCell id="UvWHuqiuJllSWviR7lVY-5" value="" style="group" parent="PuFuZEPEEVkk1p77tAiM-1" vertex="1" connectable="0">
          <mxGeometry x="785" y="430" width="220" height="230" as="geometry" />
        </mxCell>
        <mxCell id="UvWHuqiuJllSWviR7lVY-6" value="private-subnet-2 (10.10.4.0/23)" style="points=[[0,0],[0.25,0],[0.5,0],[0.75,0],[1,0],[1,0.25],[1,0.5],[1,0.75],[1,1],[0.75,1],[0.5,1],[0.25,1],[0,1],[0,0.75],[0,0.5],[0,0.25]];outlineConnect=0;gradientColor=none;html=1;whiteSpace=wrap;fontSize=11;fontStyle=0;shape=mxgraph.aws4.group;grIcon=mxgraph.aws4.group_security_group;grStroke=0;strokeColor=#147EBA;fillColor=#E6F2F8;verticalAlign=top;align=left;spacingLeft=30;fontColor=#147EBA;dashed=0;" parent="UvWHuqiuJllSWviR7lVY-5" vertex="1">
          <mxGeometry width="220" height="230.00000000000003" as="geometry" />
        </mxCell>
        <mxCell id="UvWHuqiuJllSWviR7lVY-7" value="" style="outlineConnect=0;fontColor=#FFFFFF;gradientColor=none;fillColor=#147dba;strokeColor=none;dashed=0;verticalLabelPosition=bottom;verticalAlign=top;align=center;html=1;fontSize=12;fontStyle=0;aspect=fixed;pointerEvents=1;shape=mxgraph.aws4.route_table;shadow=0;" parent="UvWHuqiuJllSWviR7lVY-5" vertex="1">
          <mxGeometry x="192" y="196.77777777777783" width="19.74" height="19.23" as="geometry" />
        </mxCell>
        <mxCell id="UvWHuqiuJllSWviR7lVY-8" value="Availability Zone 1" style="fillColor=none;strokeColor=#147EBA;dashed=1;verticalAlign=bottom;fontStyle=0;fontColor=#147EBA;" parent="PuFuZEPEEVkk1p77tAiM-1" vertex="1">
          <mxGeometry x="317" y="230" width="280" height="460" as="geometry" />
        </mxCell>
        <mxCell id="UvWHuqiuJllSWviR7lVY-9" value="" style="group" parent="PuFuZEPEEVkk1p77tAiM-1" vertex="1" connectable="0">
          <mxGeometry x="346" y="430" width="220" height="230" as="geometry" />
        </mxCell>
        <mxCell id="UvWHuqiuJllSWviR7lVY-10" value="private-subnet-1 (10.10.2.0/23)" style="points=[[0,0],[0.25,0],[0.5,0],[0.75,0],[1,0],[1,0.25],[1,0.5],[1,0.75],[1,1],[0.75,1],[0.5,1],[0.25,1],[0,1],[0,0.75],[0,0.5],[0,0.25]];outlineConnect=0;gradientColor=none;html=1;whiteSpace=wrap;fontSize=11;fontStyle=0;shape=mxgraph.aws4.group;grIcon=mxgraph.aws4.group_security_group;grStroke=0;strokeColor=#147EBA;fillColor=#E6F2F8;verticalAlign=top;align=left;spacingLeft=30;fontColor=#147EBA;dashed=0;" parent="UvWHuqiuJllSWviR7lVY-9" vertex="1">
          <mxGeometry width="220" height="230" as="geometry" />
        </mxCell>
        <mxCell id="UvWHuqiuJllSWviR7lVY-11" value="" style="outlineConnect=0;fontColor=#FFFFFF;gradientColor=none;fillColor=#147dba;strokeColor=none;dashed=0;verticalLabelPosition=bottom;verticalAlign=top;align=center;html=1;fontSize=12;fontStyle=0;aspect=fixed;pointerEvents=1;shape=mxgraph.aws4.route_table;shadow=0;" parent="UvWHuqiuJllSWviR7lVY-9" vertex="1">
          <mxGeometry x="11.259999999999991" y="195.6716417910448" width="19.74" height="19.23" as="geometry" />
        </mxCell>
        <mxCell id="UvWHuqiuJllSWviR7lVY-12" value="" style="group" parent="PuFuZEPEEVkk1p77tAiM-1" vertex="1" connectable="0">
          <mxGeometry x="785" y="239" width="220" height="181" as="geometry" />
        </mxCell>
        <mxCell id="UvWHuqiuJllSWviR7lVY-13" value="public-subnet-2 (10.10.1.0/24)" style="points=[[0,0],[0.25,0],[0.5,0],[0.75,0],[1,0],[1,0.25],[1,0.5],[1,0.75],[1,1],[0.75,1],[0.5,1],[0.25,1],[0,1],[0,0.75],[0,0.5],[0,0.25]];outlineConnect=0;gradientColor=none;html=1;whiteSpace=wrap;fontSize=11;fontStyle=0;shape=mxgraph.aws4.group;grIcon=mxgraph.aws4.group_security_group;grStroke=0;strokeColor=#248814;fillColor=#E9F3E6;verticalAlign=top;align=left;spacingLeft=30;fontColor=#248814;dashed=0;" parent="UvWHuqiuJllSWviR7lVY-12" vertex="1">
          <mxGeometry width="220" height="170" as="geometry" />
        </mxCell>
        <mxCell id="UvWHuqiuJllSWviR7lVY-14" value="" style="outlineConnect=0;fontColor=#FFFFFF;gradientColor=none;fillColor=#006600;strokeColor=none;dashed=0;verticalLabelPosition=bottom;verticalAlign=top;align=center;html=1;fontSize=12;fontStyle=0;aspect=fixed;pointerEvents=1;shape=mxgraph.aws4.route_table;shadow=0;" parent="UvWHuqiuJllSWviR7lVY-12" vertex="1">
          <mxGeometry x="192" y="147.27329192546583" width="19.74" height="19.23" as="geometry" />
        </mxCell>
        <mxCell id="UvWHuqiuJllSWviR7lVY-15" value="web-server-security-group" style="fillColor=none;strokeColor=#DD3522;verticalAlign=bottom;fontStyle=0;fontColor=#DD3522;fontSize=10;" parent="PuFuZEPEEVkk1p77tAiM-1" vertex="1">
          <mxGeometry x="817" y="272.08" width="130" height="127.92" as="geometry" />
        </mxCell>
        <mxCell id="UvWHuqiuJllSWviR7lVY-16" value="web-app-security-group" style="fillColor=none;strokeColor=#DD3522;verticalAlign=bottom;fontStyle=0;fontColor=#DD3522;fontSize=10;" parent="PuFuZEPEEVkk1p77tAiM-1" vertex="1">
          <mxGeometry x="405.5" y="491" width="541.5" height="110" as="geometry" />
        </mxCell>
        <mxCell id="UvWHuqiuJllSWviR7lVY-17" value="web-app-target-group" style="fillColor=none;strokeColor=#5A6C86;dashed=1;verticalAlign=bottom;fontStyle=0;fontColor=#5A6C86;fontSize=10;" parent="PuFuZEPEEVkk1p77tAiM-1" vertex="1">
          <mxGeometry x="416" y="501" width="525" height="83" as="geometry" />
        </mxCell>
        <mxCell id="UvWHuqiuJllSWviR7lVY-18" value="" style="fillColor=none;strokeColor=#5A6C86;dashed=1;verticalAlign=top;fontStyle=0;fontColor=#5A6C86;" parent="PuFuZEPEEVkk1p77tAiM-1" vertex="1">
          <mxGeometry x="171" y="490" width="106" height="80" as="geometry" />
        </mxCell>
        <mxCell id="UvWHuqiuJllSWviR7lVY-19" value="" style="group" parent="PuFuZEPEEVkk1p77tAiM-1" vertex="1" connectable="0">
          <mxGeometry x="686" y="42.00000000000001" width="60" height="49.53999999999998" as="geometry" />
        </mxCell>
        <mxCell id="UvWHuqiuJllSWviR7lVY-20" value="" style="outlineConnect=0;fontColor=#232F3E;gradientColor=none;fillColor=#232F3E;strokeColor=none;dashed=0;verticalLabelPosition=bottom;verticalAlign=top;align=center;html=1;fontSize=12;fontStyle=0;aspect=fixed;pointerEvents=1;shape=mxgraph.aws4.internet;" parent="UvWHuqiuJllSWviR7lVY-19" vertex="1">
          <mxGeometry x="10" y="19.999999999999986" width="48" height="29.54" as="geometry" />
        </mxCell>
        <mxCell id="UvWHuqiuJllSWviR7lVY-21" value="Internet" style="text;html=1;resizable=0;autosize=1;align=center;verticalAlign=middle;points=[];fillColor=none;strokeColor=none;rounded=0;shadow=0;" parent="UvWHuqiuJllSWviR7lVY-19" vertex="1">
          <mxGeometry width="60" height="20" as="geometry" />
        </mxCell>
        <mxCell id="UvWHuqiuJllSWviR7lVY-22" value="" style="group" parent="PuFuZEPEEVkk1p77tAiM-1" vertex="1" connectable="0">
          <mxGeometry x="658" y="168" width="142" height="38" as="geometry" />
        </mxCell>
        <mxCell id="UvWHuqiuJllSWviR7lVY-23" value="" style="outlineConnect=0;fontColor=#232F3E;gradientColor=none;fillColor=#5A30B5;strokeColor=none;dashed=0;verticalLabelPosition=bottom;verticalAlign=top;align=center;html=1;fontSize=12;fontStyle=0;aspect=fixed;pointerEvents=1;shape=mxgraph.aws4.internet_gateway;shadow=0;" parent="UvWHuqiuJllSWviR7lVY-22" vertex="1">
          <mxGeometry width="38" height="38" as="geometry" />
        </mxCell>
        <mxCell id="UvWHuqiuJllSWviR7lVY-24" value="internet-gateway" style="text;html=1;resizable=0;autosize=1;align=center;verticalAlign=middle;points=[];fillColor=none;strokeColor=none;rounded=0;shadow=0;" parent="UvWHuqiuJllSWviR7lVY-22" vertex="1">
          <mxGeometry x="37" y="8" width="100" height="20" as="geometry" />
        </mxCell>
        <mxCell id="UvWHuqiuJllSWviR7lVY-25" style="edgeStyle=orthogonalEdgeStyle;rounded=0;orthogonalLoop=1;jettySize=auto;html=1;" parent="PuFuZEPEEVkk1p77tAiM-1" source="UvWHuqiuJllSWviR7lVY-20" target="UvWHuqiuJllSWviR7lVY-23" edge="1">
          <mxGeometry relative="1" as="geometry" />
        </mxCell>
        <mxCell id="UvWHuqiuJllSWviR7lVY-26" value="" style="outlineConnect=0;fontColor=#232F3E;gradientColor=none;fillColor=#D86613;strokeColor=none;dashed=0;verticalLabelPosition=bottom;verticalAlign=top;align=center;html=1;fontSize=12;fontStyle=0;aspect=fixed;pointerEvents=1;shape=mxgraph.aws4.instance2;" parent="PuFuZEPEEVkk1p77tAiM-1" vertex="1">
          <mxGeometry x="834" y="276" width="92" height="92" as="geometry" />
        </mxCell>
        <mxCell id="UvWHuqiuJllSWviR7lVY-27" value="web-server" style="text;html=1;resizable=0;autosize=1;align=center;verticalAlign=middle;points=[];fillColor=none;strokeColor=none;rounded=0;shadow=0;fontSize=10;" parent="PuFuZEPEEVkk1p77tAiM-1" vertex="1">
          <mxGeometry x="845" y="337.52363636363634" width="70" height="20" as="geometry" />
        </mxCell>
        <mxCell id="UvWHuqiuJllSWviR7lVY-28" value="" style="group" parent="PuFuZEPEEVkk1p77tAiM-1" vertex="1" connectable="0">
          <mxGeometry x="346" y="240" width="220" height="170" as="geometry" />
        </mxCell>
        <mxCell id="UvWHuqiuJllSWviR7lVY-29" value="public-subnet-1 (10.10.0.0/24)" style="points=[[0,0],[0.25,0],[0.5,0],[0.75,0],[1,0],[1,0.25],[1,0.5],[1,0.75],[1,1],[0.75,1],[0.5,1],[0.25,1],[0,1],[0,0.75],[0,0.5],[0,0.25]];outlineConnect=0;gradientColor=none;html=1;whiteSpace=wrap;fontSize=11;fontStyle=0;shape=mxgraph.aws4.group;grIcon=mxgraph.aws4.group_security_group;grStroke=0;strokeColor=#248814;fillColor=#E9F3E6;verticalAlign=top;align=left;spacingLeft=30;fontColor=#248814;dashed=0;" parent="UvWHuqiuJllSWviR7lVY-28" vertex="1">
          <mxGeometry width="220" height="170" as="geometry" />
        </mxCell>
        <mxCell id="UvWHuqiuJllSWviR7lVY-30" value="" style="outlineConnect=0;fontColor=#FFFFFF;gradientColor=none;fillColor=#006600;strokeColor=none;dashed=0;verticalLabelPosition=bottom;verticalAlign=top;align=center;html=1;fontSize=12;fontStyle=0;aspect=fixed;pointerEvents=1;shape=mxgraph.aws4.route_table;shadow=0;" parent="UvWHuqiuJllSWviR7lVY-28" vertex="1">
          <mxGeometry x="11.259999999999991" y="138.125" width="18.64333333333333" height="18.161666666666665" as="geometry" />
        </mxCell>
        <mxCell id="UvWHuqiuJllSWviR7lVY-31" value="nat-gateway" style="outlineConnect=0;fontColor=#232F3E;gradientColor=none;fillColor=#A166FF;strokeColor=none;dashed=0;verticalLabelPosition=bottom;verticalAlign=top;align=center;html=1;fontSize=12;fontStyle=0;aspect=fixed;pointerEvents=1;shape=mxgraph.aws4.nat_gateway;" parent="UvWHuqiuJllSWviR7lVY-28" vertex="1">
          <mxGeometry x="91" y="50" width="38" height="38" as="geometry" />
        </mxCell>
        <mxCell id="UvWHuqiuJllSWviR7lVY-32" value="" style="outlineConnect=0;fontColor=#232F3E;gradientColor=none;fillColor=#277116;strokeColor=none;dashed=0;verticalLabelPosition=bottom;verticalAlign=top;align=center;html=1;fontSize=12;fontStyle=0;aspect=fixed;pointerEvents=1;shape=mxgraph.aws4.volume;" parent="PuFuZEPEEVkk1p77tAiM-1" vertex="1">
          <mxGeometry x="884" y="310.78" width="22" height="27.68" as="geometry" />
        </mxCell>
        <mxCell id="UvWHuqiuJllSWviR7lVY-33" value="" style="group" parent="PuFuZEPEEVkk1p77tAiM-1" vertex="1" connectable="0">
          <mxGeometry x="197" y="388" width="64.5" height="70.96363636363634" as="geometry" />
        </mxCell>
        <mxCell id="UvWHuqiuJllSWviR7lVY-34" value="" style="outlineConnect=0;fontColor=#232F3E;gradientColor=none;fillColor=#277116;strokeColor=none;dashed=0;verticalLabelPosition=bottom;verticalAlign=top;align=center;html=1;fontSize=12;fontStyle=0;aspect=fixed;pointerEvents=1;shape=mxgraph.aws4.bucket_with_objects;" parent="UvWHuqiuJllSWviR7lVY-33" vertex="1">
          <mxGeometry width="49" height="50.96" as="geometry" />
        </mxCell>
        <mxCell id="UvWHuqiuJllSWviR7lVY-35" value="photos-bucket" style="text;html=1;resizable=0;autosize=1;align=center;verticalAlign=middle;points=[];fillColor=none;strokeColor=none;rounded=0;shadow=0;fontSize=10;" parent="UvWHuqiuJllSWviR7lVY-33" vertex="1">
          <mxGeometry x="-15.5" y="50.96363636363634" width="80" height="20" as="geometry" />
        </mxCell>
        <mxCell id="UvWHuqiuJllSWviR7lVY-36" value="" style="group" parent="PuFuZEPEEVkk1p77tAiM-1" vertex="1" connectable="0">
          <mxGeometry x="174.5" y="507" width="100" height="73.50363636363636" as="geometry" />
        </mxCell>
        <mxCell id="UvWHuqiuJllSWviR7lVY-37" value="" style="outlineConnect=0;fontColor=#232F3E;gradientColor=none;fillColor=#D05C17;strokeColor=none;dashed=0;verticalLabelPosition=bottom;verticalAlign=top;align=center;html=1;fontSize=12;fontStyle=0;aspect=fixed;pointerEvents=1;shape=mxgraph.aws4.ami;" parent="UvWHuqiuJllSWviR7lVY-36" vertex="1">
          <mxGeometry x="25" width="43.5" height="43.5" as="geometry" />
        </mxCell>
        <mxCell id="UvWHuqiuJllSWviR7lVY-38" value="web-app-launch-template" style="text;html=1;resizable=0;autosize=1;align=center;verticalAlign=middle;points=[];fillColor=none;strokeColor=none;rounded=0;shadow=0;fontSize=10;" parent="PuFuZEPEEVkk1p77tAiM-1" vertex="1">
          <mxGeometry x="159" y="576.0036363636364" width="130" height="20" as="geometry" />
        </mxCell>
        <mxCell id="UvWHuqiuJllSWviR7lVY-39" value="" style="outlineConnect=0;fontColor=#232F3E;gradientColor=none;fillColor=#5A30B5;strokeColor=none;dashed=0;verticalLabelPosition=bottom;verticalAlign=top;align=center;html=1;fontSize=12;fontStyle=0;aspect=fixed;pointerEvents=1;shape=mxgraph.aws4.application_load_balancer;shadow=0;" parent="PuFuZEPEEVkk1p77tAiM-1" vertex="1">
          <mxGeometry x="658" y="280" width="38" height="38" as="geometry" />
        </mxCell>
        <mxCell id="UvWHuqiuJllSWviR7lVY-40" value="web-alb" style="text;html=1;resizable=0;autosize=1;align=center;verticalAlign=middle;points=[];fillColor=none;strokeColor=none;rounded=0;shadow=0;" parent="PuFuZEPEEVkk1p77tAiM-1" vertex="1">
          <mxGeometry x="648" y="316" width="60" height="20" as="geometry" />
        </mxCell>
        <mxCell id="UvWHuqiuJllSWviR7lVY-41" value="" style="outlineConnect=0;fontColor=#232F3E;gradientColor=none;fillColor=#232F3E;strokeColor=none;dashed=0;verticalLabelPosition=bottom;verticalAlign=top;align=center;html=1;fontSize=12;fontStyle=0;aspect=fixed;pointerEvents=1;shape=mxgraph.aws4.client;" parent="PuFuZEPEEVkk1p77tAiM-1" vertex="1">
          <mxGeometry x="1190" y="49.99999999999999" width="57" height="55.54" as="geometry" />
        </mxCell>
        <mxCell id="UvWHuqiuJllSWviR7lVY-42" style="edgeStyle=orthogonalEdgeStyle;rounded=0;orthogonalLoop=1;jettySize=auto;html=1;" parent="PuFuZEPEEVkk1p77tAiM-1" source="UvWHuqiuJllSWviR7lVY-41" target="UvWHuqiuJllSWviR7lVY-20" edge="1">
          <mxGeometry relative="1" as="geometry">
            <mxPoint x="1240" y="240" as="targetPoint" />
          </mxGeometry>
        </mxCell>
        <mxCell id="UvWHuqiuJllSWviR7lVY-43" value="web-app-auto-scaling-group" style="points=[[0,0],[0.25,0],[0.5,0],[0.75,0],[1,0],[1,0.25],[1,0.5],[1,0.75],[1,1],[0.75,1],[0.5,1],[0.25,1],[0,1],[0,0.75],[0,0.5],[0,0.25]];outlineConnect=0;gradientColor=none;html=1;whiteSpace=wrap;fontSize=10;fontStyle=0;shape=mxgraph.aws4.groupCenter;grIcon=mxgraph.aws4.group_auto_scaling_group;grStroke=1;strokeColor=#D86613;fillColor=none;verticalAlign=bottom;align=center;fontColor=#D86613;dashed=1;spacingTop=25;" parent="PuFuZEPEEVkk1p77tAiM-1" vertex="1">
          <mxGeometry x="423" y="513" width="510" height="50" as="geometry" />
        </mxCell>
        <mxCell id="UvWHuqiuJllSWviR7lVY-44" value="" style="outlineConnect=0;fontColor=#232F3E;gradientColor=none;fillColor=#D86613;strokeColor=none;dashed=0;verticalLabelPosition=bottom;verticalAlign=top;align=center;html=1;fontSize=12;fontStyle=0;aspect=fixed;pointerEvents=1;shape=mxgraph.aws4.instance2;" parent="PuFuZEPEEVkk1p77tAiM-1" vertex="1">
          <mxGeometry x="507" y="519" width="38" height="38" as="geometry" />
        </mxCell>
        <mxCell id="UvWHuqiuJllSWviR7lVY-45" value="" style="outlineConnect=0;fontColor=#232F3E;gradientColor=none;fillColor=#D86613;strokeColor=none;dashed=0;verticalLabelPosition=bottom;verticalAlign=top;align=center;html=1;fontSize=12;fontStyle=0;aspect=fixed;pointerEvents=1;shape=mxgraph.aws4.instance2;" parent="PuFuZEPEEVkk1p77tAiM-1" vertex="1">
          <mxGeometry x="447" y="519" width="38" height="38" as="geometry" />
        </mxCell>
        <mxCell id="UvWHuqiuJllSWviR7lVY-46" value="" style="outlineConnect=0;fontColor=#232F3E;gradientColor=none;fillColor=#D86613;strokeColor=none;dashed=0;verticalLabelPosition=bottom;verticalAlign=top;align=center;html=1;fontSize=12;fontStyle=0;aspect=fixed;pointerEvents=1;shape=mxgraph.aws4.instance2;" parent="PuFuZEPEEVkk1p77tAiM-1" vertex="1">
          <mxGeometry x="808" y="519" width="38" height="38" as="geometry" />
        </mxCell>
        <mxCell id="UvWHuqiuJllSWviR7lVY-51" value="" style="outlineConnect=0;fontColor=#232F3E;gradientColor=none;fillColor=#C7131F;strokeColor=none;dashed=0;verticalLabelPosition=bottom;verticalAlign=top;align=center;html=1;fontSize=12;fontStyle=0;aspect=fixed;pointerEvents=1;shape=mxgraph.aws4.role;" parent="PuFuZEPEEVkk1p77tAiM-1" vertex="1">
          <mxGeometry x="849" y="316.72" width="28" height="15.8" as="geometry" />
        </mxCell>
        <mxCell id="UvWHuqiuJllSWviR7lVY-52" value="" style="edgeStyle=orthogonalEdgeStyle;rounded=0;orthogonalLoop=1;jettySize=auto;html=1;" parent="PuFuZEPEEVkk1p77tAiM-1" source="UvWHuqiuJllSWviR7lVY-23" target="UvWHuqiuJllSWviR7lVY-39" edge="1">
          <mxGeometry relative="1" as="geometry">
            <mxPoint x="678" y="261" as="targetPoint" />
          </mxGeometry>
        </mxCell>
        <mxCell id="UvWHuqiuJllSWviR7lVY-53" value="&lt;font style=&quot;font-size: 10px&quot;&gt;employees-table&lt;/font&gt;" style="outlineConnect=0;fontColor=#232F3E;gradientColor=none;fillColor=#527FFF;strokeColor=none;dashed=0;verticalLabelPosition=bottom;verticalAlign=top;align=center;html=1;fontSize=12;fontStyle=0;aspect=fixed;pointerEvents=1;shape=mxgraph.aws4.table;" parent="PuFuZEPEEVkk1p77tAiM-1" vertex="1">
          <mxGeometry x="196.13" y="250" width="55.75" height="55.75" as="geometry" />
        </mxCell>
        <mxCell id="yQVU5jTqm8NPX5oB-rVf-0" value="" style="group" parent="PuFuZEPEEVkk1p77tAiM-1" vertex="1" connectable="0">
          <mxGeometry x="67" y="337.52000000000004" width="90" height="68.18363636363631" as="geometry" />
        </mxCell>
        <mxCell id="yQVU5jTqm8NPX5oB-rVf-1" value="" style="group" parent="yQVU5jTqm8NPX5oB-rVf-0" vertex="1" connectable="0">
          <mxGeometry x="-9" y="18.279999999999973" width="90" height="49.90363636363634" as="geometry" />
        </mxCell>
        <mxCell id="yQVU5jTqm8NPX5oB-rVf-2" value="" style="outlineConnect=0;fontColor=#232F3E;gradientColor=none;fillColor=#C7131F;strokeColor=none;dashed=0;verticalLabelPosition=bottom;verticalAlign=top;align=center;html=1;fontSize=12;fontStyle=0;aspect=fixed;pointerEvents=1;shape=mxgraph.aws4.role;" parent="yQVU5jTqm8NPX5oB-rVf-1" vertex="1">
          <mxGeometry x="15" width="53" height="29.9" as="geometry" />
        </mxCell>
        <mxCell id="yQVU5jTqm8NPX5oB-rVf-3" value="web-server-role" style="text;html=1;resizable=0;autosize=1;align=center;verticalAlign=middle;points=[];fillColor=none;strokeColor=none;rounded=0;shadow=0;fontSize=10;" parent="yQVU5jTqm8NPX5oB-rVf-1" vertex="1">
          <mxGeometry y="29.903636363636338" width="90" height="20" as="geometry" />
        </mxCell>
        <mxCell id="yQVU5jTqm8NPX5oB-rVf-4" value="web-server-policy" style="outlineConnect=0;fontColor=#232F3E;gradientColor=none;fillColor=#FF5252;strokeColor=none;dashed=0;verticalLabelPosition=bottom;verticalAlign=top;align=center;html=1;fontSize=12;fontStyle=0;aspect=fixed;pointerEvents=1;shape=mxgraph.aws4.permissions;" parent="PuFuZEPEEVkk1p77tAiM-1" vertex="1">
          <mxGeometry x="80" y="450" width="39" height="49.07" as="geometry" />
        </mxCell>
        <mxCell id="dp3axGsY9gHJoE37dXhW-0" value="" style="edgeStyle=orthogonalEdgeStyle;rounded=0;orthogonalLoop=1;jettySize=auto;html=1;exitX=0.5;exitY=1;exitDx=0;exitDy=0;" parent="PuFuZEPEEVkk1p77tAiM-1" source="UvWHuqiuJllSWviR7lVY-3" target="UvWHuqiuJllSWviR7lVY-45" edge="1">
          <mxGeometry relative="1" as="geometry">
            <mxPoint x="687" y="290.00043180836815" as="targetPoint" />
            <mxPoint x="687" y="215.99956729674363" as="sourcePoint" />
            <Array as="points">
              <mxPoint x="677" y="420" />
              <mxPoint x="466" y="420" />
            </Array>
          </mxGeometry>
        </mxCell>
        <mxCell id="dp3axGsY9gHJoE37dXhW-2" value="" style="edgeStyle=orthogonalEdgeStyle;rounded=0;orthogonalLoop=1;jettySize=auto;html=1;exitX=0.5;exitY=1;exitDx=0;exitDy=0;" parent="PuFuZEPEEVkk1p77tAiM-1" source="UvWHuqiuJllSWviR7lVY-3" target="UvWHuqiuJllSWviR7lVY-44" edge="1">
          <mxGeometry relative="1" as="geometry">
            <mxPoint x="476.00000000000045" y="529" as="targetPoint" />
            <mxPoint x="687" y="380" as="sourcePoint" />
            <Array as="points">
              <mxPoint x="677" y="420" />
              <mxPoint x="526" y="420" />
            </Array>
          </mxGeometry>
        </mxCell>
        <mxCell id="dp3axGsY9gHJoE37dXhW-3" value="" style="edgeStyle=orthogonalEdgeStyle;rounded=0;orthogonalLoop=1;jettySize=auto;html=1;exitX=0.5;exitY=1;exitDx=0;exitDy=0;" parent="PuFuZEPEEVkk1p77tAiM-1" source="UvWHuqiuJllSWviR7lVY-3" target="UvWHuqiuJllSWviR7lVY-46" edge="1">
          <mxGeometry relative="1" as="geometry">
            <mxPoint x="536.0000000000005" y="529" as="targetPoint" />
            <mxPoint x="687" y="367.52" as="sourcePoint" />
            <Array as="points">
              <mxPoint x="677" y="420" />
              <mxPoint x="827" y="420" />
            </Array>
          </mxGeometry>
        </mxCell>
      </root>
    </mxGraphModel>
  </diagram>
</mxfile>
